<svg width="48" height="49" viewBox="0 0 48 49" fill="none" xmlns="http://www.w3.org/2000/svg">
<path fill-rule="evenodd" clip-rule="evenodd" d="M14.442 18.9463H14.3485C14.2828 18.9463 14.2297 18.8932 14.2297 18.8275V14.1041C14.2297 14.0384 14.2828 13.9853 14.3485 13.9853H14.442V4.6269C14.442 3.45173 15.3847 2.4939 16.5599 2.47369C19.2868 2.42567 21.7584 2.40292 23.9748 2.40292C26.1912 2.40292 28.6629 2.42567 31.3898 2.47369C32.5649 2.4939 33.5076 3.45173 33.5076 4.6269V8.59216H33.5556C33.6213 8.59216 33.6744 8.64523 33.6744 8.71094V10.6847C33.6744 10.7504 33.6213 10.8035 33.5556 10.8035H33.5076V14.0409H33.5556C33.5885 14.0409 33.6163 14.0687 33.6163 14.1016V17.0888C33.6163 17.1216 33.5885 17.1494 33.5556 17.1494H33.4975V38.7271C33.4975 39.8997 32.5624 40.8576 31.3923 40.8828C29.0748 40.9359 26.6006 40.9612 23.9698 40.9612C21.3389 40.9612 18.8647 40.9359 16.5472 40.8828C15.3771 40.8576 14.442 39.8997 14.442 38.7271V18.9463Z" fill="#0B2139"/>
<path fill-rule="evenodd" clip-rule="evenodd" d="M15.5919 40.2839C15.8977 40.4506 16.1833 40.5391 17.0173 40.5391H30.8868C31.7208 40.5391 32.0064 40.4506 32.3122 40.2839C32.5852 40.1347 32.8101 39.9098 32.9592 39.6369C33.126 39.3311 33.2144 39.0455 33.2144 38.2115V5.08431C33.2144 4.25032 33.126 3.96474 32.9592 3.65894C32.8101 3.386 32.5852 3.16107 32.3122 3.01197C32.0064 2.84517 31.7208 2.75671 30.8868 2.75671H17.0173C16.1833 2.75671 15.8977 2.84517 15.5919 3.01197C15.319 3.16107 15.0941 3.386 14.945 3.65894C14.7782 3.96474 14.6897 4.25032 14.6897 5.08431V38.2115C14.6897 39.0455 14.7782 39.3311 14.945 39.6369C15.0941 39.9098 15.3215 40.1347 15.5919 40.2839Z" fill="#19335D"/>
<path d="M32.651 3.85614C32.5322 3.64132 32.3553 3.46441 32.143 3.34563C31.8979 3.21169 31.673 3.1384 31.0058 3.1384H28.5063L28.4305 3.8157C28.385 4.22764 28.0362 4.54102 27.6218 4.54102H20.227C19.7923 4.54102 19.4335 4.19984 19.4133 3.76516L19.3829 3.1384H16.8835C16.2163 3.1384 15.9914 3.20916 15.7462 3.34563C15.5314 3.46441 15.3545 3.64132 15.2382 3.85361C15.1043 4.09875 15.031 4.3262 15.031 4.99087V37.4913C15.031 38.1585 15.1018 38.3834 15.2382 38.6286C15.357 38.8434 15.5314 39.0203 15.7462 39.1391C15.9914 39.273 16.2163 39.3463 16.8835 39.3463H31.0032C31.6679 39.3463 31.8953 39.2756 32.1405 39.1391C32.3553 39.0203 32.5322 38.8434 32.6485 38.6286C32.7824 38.3834 32.8557 38.1585 32.8557 37.4913V4.9934C32.8557 4.32873 32.7849 4.10128 32.651 3.85614Z" fill="#F4EFEF"/>
<path d="M20.7956 3.99254C20.9464 3.99254 21.0686 3.87034 21.0686 3.7196C21.0686 3.56886 20.9464 3.44666 20.7956 3.44666C20.6449 3.44666 20.5227 3.56886 20.5227 3.7196C20.5227 3.87034 20.6449 3.99254 20.7956 3.99254Z" fill="#0B2139"/>
<path d="M27.1086 3.9926C27.2594 3.9926 27.3816 3.8704 27.3816 3.71966C27.3816 3.56892 27.2594 3.44672 27.1086 3.44672C26.9579 3.44672 26.8357 3.56892 26.8357 3.71966C26.8357 3.8704 26.9579 3.9926 27.1086 3.9926Z" fill="#0B2139"/>
<path d="M26.1179 3.94457H21.6776C21.5537 3.94457 21.4526 3.84348 21.4526 3.71965C21.4526 3.59581 21.5537 3.49472 21.6776 3.49472H26.1154C26.2392 3.49472 26.3403 3.59581 26.3403 3.71965C26.3429 3.84348 26.2418 3.94457 26.1179 3.94457Z" fill="#0B2139"/>
<path d="M35.6153 14.7537V13.9525H32.2945H21.1316H17.8108V14.7537C18.296 14.7739 18.6827 15.1706 18.6827 15.6609C18.6827 16.1512 18.296 16.548 17.8108 16.5682V17.6474C18.296 17.6676 18.6827 18.0644 18.6827 18.5546C18.6827 19.0449 18.296 19.4417 17.8108 19.4619V20.5411C18.296 20.5613 18.6827 20.9581 18.6827 21.4483C18.6827 21.9386 18.296 22.3354 17.8108 22.3556V23.1568H21.1316H32.2919H35.6127V22.3556C35.1275 22.3354 34.7408 21.9386 34.7408 21.4483C34.7408 20.9581 35.1275 20.5613 35.6127 20.5411V19.4619C35.1275 19.4417 34.7408 19.0449 34.7408 18.5546C34.7408 18.0644 35.1275 17.6676 35.6127 17.6474V16.5682C35.1275 16.548 34.7408 16.1512 34.7408 15.6609C34.7434 15.1706 35.13 14.7739 35.6153 14.7537Z" fill="#FEB837"/>
<path d="M31.7915 22.1585H21.6345C21.22 22.1585 20.8813 21.8224 20.8813 21.4054V15.7065C20.8813 15.292 21.2175 14.9533 21.6345 14.9533H31.7915C32.206 14.9533 32.5446 15.2895 32.5446 15.7065V21.4054C32.5421 21.8224 32.206 22.1585 31.7915 22.1585Z" fill="#FFCB64"/>
<path d="M24.081 18.954C24.6117 19.5428 25.1425 20.1342 25.6732 20.723C25.9284 21.0061 26.3833 20.8924 26.6158 20.6573C27.7228 19.5403 28.8272 18.4207 29.9341 17.3037C30.5407 16.6896 29.5298 15.8177 28.9283 16.4267C27.8213 17.5438 26.7169 18.6633 25.61 19.7804C25.9234 19.7576 26.2368 19.7374 26.5527 19.7147C26.0219 19.1258 25.4912 18.5344 24.9605 17.9456C24.7153 17.6752 24.2352 17.7611 24.0178 18.0113C23.755 18.312 23.8384 18.6861 24.081 18.954Z" fill="white"/>
<path d="M14.9675 35.6236C15.8344 35.7247 16.633 36.0608 17.3027 36.5637L19.0263 36.9176L18.3364 37.6227C18.9328 38.4516 19.2866 39.4751 19.2866 40.5846C19.2866 41.9645 18.7407 43.2129 17.8562 44.1152C16.9742 45.0199 15.7535 45.5784 14.4065 45.5784C13.0595 45.5784 11.8388 45.0199 10.9568 44.1152C10.0748 43.2104 9.52637 41.9619 9.52637 40.5846C9.52637 39.2047 10.0723 37.9563 10.9568 37.054C11.715 36.2782 12.7233 35.755 13.848 35.6236V34.8806H13.1732V33.7357H15.6423V34.8806H14.9675V35.6236Z" fill="#F49B51"/>
<path d="M15.7131 35.6236C16.58 35.7247 17.3786 36.0608 18.0483 36.5637L18.7383 35.8586L19.7719 36.9175L19.082 37.6226C19.6784 38.4516 20.0322 39.4751 20.0322 40.5846C20.0322 41.9644 19.4863 43.2129 18.6018 44.1151C17.7198 45.0199 16.4991 45.5784 15.1521 45.5784C13.8051 45.5784 12.5844 45.0199 11.7024 44.1151C10.8204 43.2104 10.272 41.9619 10.272 40.5846C10.272 39.2047 10.8179 37.9562 11.7024 37.054C12.4606 36.2781 13.4689 35.755 14.5936 35.6236V34.8806H13.9188V33.7357H16.3879V34.8806H15.7131V35.6236Z" fill="#FFCB64"/>
<path d="M18.0103 37.663C17.2799 36.915 16.269 36.4525 15.1545 36.4525C14.0375 36.4525 13.0291 36.915 12.2987 37.663C11.5683 38.4111 11.116 39.4447 11.116 40.5871C11.116 41.7294 11.5683 42.763 12.2987 43.5111C13.0291 44.2592 14.04 44.7216 15.1545 44.7216C16.269 44.7216 17.2799 44.2592 18.0103 43.5111C18.7407 42.763 19.1931 41.7294 19.1931 40.5871C19.1931 39.4447 18.7407 38.4111 18.0103 37.663Z" fill="#F49B51"/>
<path d="M15.1521 37.054V40.5845L17.5909 43.0814C18.2151 42.4421 18.6018 41.56 18.6018 40.5845C18.6018 38.636 17.0576 37.054 15.1521 37.054Z" fill="#FFCB64"/>
<path d="M7.8155 41.4465C7.26709 41.4465 6.71868 41.449 6.16774 41.4465C5.9605 41.4465 5.78612 41.2847 5.76338 41.0901C5.7381 40.8728 5.85689 40.6832 6.05907 40.6276C6.10708 40.615 6.16016 40.6125 6.2107 40.6125C7.27973 40.6125 8.34623 40.6125 9.41525 40.6125C9.68567 40.6125 9.8651 40.7793 9.8651 41.0269C9.8651 41.2797 9.68567 41.4465 9.4102 41.4465C8.87948 41.4465 8.34875 41.4465 7.8155 41.4465Z" fill="#F49B51"/>
<path d="M8.72542 39.8113C8.32864 39.8113 7.93439 39.8113 7.53761 39.8113C7.26972 39.8113 7.08776 39.6445 7.08523 39.3993C7.0827 39.1441 7.25961 38.9773 7.54014 38.9773C8.33622 38.9773 9.1323 38.9773 9.92839 38.9773C10.1963 38.9773 10.3757 39.1466 10.3732 39.3968C10.3732 39.6445 10.1937 39.8113 9.92586 39.8138C9.52656 39.8138 9.12472 39.8113 8.72542 39.8113Z" fill="#F49B51"/>
<path d="M8.71781 43.0816C8.32103 43.0816 7.92678 43.0816 7.53 43.0816C7.26464 43.0816 7.08521 42.9097 7.08521 42.6595C7.08773 42.4144 7.26211 42.2476 7.52242 42.2451C8.32608 42.2425 9.13228 42.2451 9.93594 42.2451C10.1937 42.2451 10.3732 42.4169 10.3732 42.6595C10.3757 42.9072 10.1963 43.079 9.93089 43.079C9.52653 43.0841 9.12217 43.0816 8.71781 43.0816Z" fill="#F49B51"/>
<path d="M33.5859 21.3347H32.8682V31.5751H33.5859V21.3347Z" fill="#992E40"/>
<path d="M37.4929 21.3347H36.7751V31.5751H37.4929V21.3347Z" fill="#992E40"/>
<path d="M32.6886 20.7963C32.6886 20.7963 32.6431 21.7844 32.7341 21.8299C32.8251 21.8754 33.6667 21.9639 33.6768 21.7389C33.6869 21.514 33.6667 21.2487 33.9017 21.2461C34.1367 21.2411 36.5022 21.1956 36.5957 21.2916C36.6867 21.3826 36.6867 21.5165 36.6867 21.7718C36.6867 21.8805 37.4955 21.8754 37.5839 21.787C37.6749 21.696 37.6749 20.6649 37.4929 20.4955C37.4146 20.4197 33.1814 20.4854 32.9969 20.4955C32.906 20.4981 32.6886 20.5713 32.6886 20.7963Z" fill="#992E40"/>
<path d="M39.7725 42.106C39.209 43.1548 35.5343 42.988 33.6667 42.988C32.6229 42.988 31.42 43.0461 30.3737 42.9602C29.5473 42.892 28.8194 42.7328 28.3443 42.3815C28.1396 42.2298 27.9804 41.5652 27.8565 40.577C27.8515 40.5391 27.8464 40.5012 27.8414 40.4633C27.3309 36.1872 27.48 26.3233 27.8768 25.6713C28.2154 25.1128 28.7664 24.7337 30.3029 24.6452C31.89 24.5517 38.4558 24.1524 39.5223 25.181C40.8542 26.4623 40.4878 40.7741 39.7725 42.106Z" fill="#992E40"/>
<path d="M41.4279 42.3259C40.8491 43.3999 37.0886 43.2306 35.1755 43.2306C34.109 43.2306 32.8757 43.2913 31.8041 43.2003C30.9575 43.1295 30.2119 42.9678 29.7267 42.6089C29.5195 42.4547 29.3527 41.7724 29.2263 40.7615C29.2213 40.7236 29.2162 40.6831 29.2112 40.6452C28.688 36.268 28.8422 26.1691 29.2491 25.4994C29.5953 24.9283 30.1589 24.5416 31.7333 24.4481C33.3584 24.3521 40.0809 23.9426 41.1726 24.9965C42.5348 26.3107 42.1608 40.9637 41.4279 42.3259Z" fill="#D84E55"/>
<path d="M39.9535 44.5246C40.0255 44.0456 39.6956 43.599 39.2167 43.5269C38.7377 43.4549 38.291 43.7848 38.219 44.2638C38.147 44.7427 38.4769 45.1894 38.9558 45.2614C39.4348 45.3334 39.8814 45.0035 39.9535 44.5246Z" fill="#992E40"/>
<path d="M39.1985 45.0843C39.5802 45.0223 39.8393 44.6628 39.7774 44.2811C39.7154 43.8995 39.3559 43.6403 38.9742 43.7022C38.5926 43.7642 38.3334 44.1238 38.3954 44.5054C38.4573 44.8871 38.8169 45.1462 39.1985 45.0843Z" fill="#992E40"/>
<path d="M31.8217 45.1817C32.2572 45.1817 32.6102 44.8287 32.6102 44.3932C32.6102 43.9577 32.2572 43.6047 31.8217 43.6047C31.3862 43.6047 31.0332 43.9577 31.0332 44.3932C31.0332 44.8287 31.3862 45.1817 31.8217 45.1817Z" fill="#992E40"/>
<path d="M32.2826 45.1419C32.6946 44.8873 32.8222 44.3469 32.5676 43.9349C32.313 43.5229 31.7725 43.3953 31.3605 43.6499C30.9485 43.9045 30.8209 44.4449 31.0755 44.8569C31.3301 45.2689 31.8705 45.3965 32.2826 45.1419Z" fill="#992E40"/>
<path d="M32.3864 44.8029C32.6124 44.4893 32.5415 44.0518 32.2278 43.8257C31.9142 43.5997 31.4767 43.6707 31.2506 43.9843C31.0246 44.2979 31.0956 44.7354 31.4092 44.9615C31.7228 45.1876 32.1603 45.1166 32.3864 44.8029Z" fill="#992E40"/>
<path d="M31.8041 43.2003C30.9575 43.1296 30.2119 42.9678 29.7267 42.609C29.5195 42.4548 29.3527 41.7724 29.2263 40.7615C29.2946 40.6857 29.4765 40.6781 29.5144 40.6857C29.5144 40.6857 30.0603 40.6781 30.8008 41.1887C31.5362 41.6966 31.7991 43.1776 31.8041 43.2003Z" fill="#D84E55"/>
<path d="M39.1812 43.1649C40.0278 43.0942 40.7733 42.9324 41.2586 42.5735C41.4658 42.4194 41.6326 41.737 41.759 40.7261C41.6907 40.6503 41.6048 40.6427 41.5669 40.6503C41.5669 40.6503 40.9224 40.6427 40.1819 41.1532C39.4465 41.6612 39.1837 43.1422 39.1812 43.1649Z" fill="#D84E55"/>
<path d="M32.1175 40.8475C31.9532 40.8475 31.8218 40.7135 31.8218 40.5518V27.0335C31.8218 26.8693 31.9557 26.7379 32.1175 26.7379C32.2817 26.7379 32.4132 26.8718 32.4132 27.0335V40.5518C32.4157 40.7135 32.2817 40.8475 32.1175 40.8475Z" fill="#EB6148"/>
<path d="M35.2967 40.8475C35.1324 40.8475 35.001 40.7135 35.001 40.5518V27.0335C35.001 26.8693 35.1349 26.7379 35.2967 26.7379C35.4609 26.7379 35.5924 26.8718 35.5924 27.0335V40.5518C35.5924 40.7135 35.4584 40.8475 35.2967 40.8475Z" fill="#EB6148"/>
<path d="M38.4761 40.8475C38.3118 40.8475 38.1804 40.7135 38.1804 40.5518V27.0335C38.1804 26.8693 38.3144 26.7379 38.4761 26.7379C38.6404 26.7379 38.7718 26.8718 38.7718 27.0335V40.5518C38.7718 40.7135 38.6379 40.8475 38.4761 40.8475Z" fill="#EB6148"/>
</svg>
