<svg width="20" height="17" viewBox="0 0 20 17" fill="none" xmlns="http://www.w3.org/2000/svg">
<path d="M1 6V15C1 15.2652 1.10536 15.5196 1.29289 15.7071C1.48043 15.8946 1.73478 16 2 16H18C18.2652 16 18.5196 15.8946 18.7071 15.7071C18.8946 15.5196 19 15.2652 19 15V6H1ZM0 5H20V15C20 15.5304 19.7893 16.0391 19.4142 16.4142C19.0391 16.7893 18.5304 17 18 17H2C1.46957 17 0.960859 16.7893 0.585786 16.4142C0.210714 16.0391 0 15.5304 0 15V5ZM1 5H19V3C19 2.73478 18.8946 2.48043 18.7071 2.29289C18.5196 2.10536 18.2652 2 18 2H2C1.73478 2 1.48043 2.10536 1.29289 2.29289C1.10536 2.48043 1 2.73478 1 3V5ZM2 1H18C18.5304 1 19.0391 1.21071 19.4142 1.58579C19.7893 1.96086 20 2.46957 20 3V6H0V3C0 2.46957 0.210714 1.96086 0.585786 1.58579C0.960859 1.21071 1.46957 1 2 1ZM7.6 11.61C7.86522 11.61 8.11957 11.7154 8.30711 11.9029C8.49464 12.0904 8.6 12.3448 8.6 12.61V13.61C8.6 13.8752 8.49464 14.1296 8.30711 14.3171C8.11957 14.5046 7.86522 14.61 7.6 14.61H6.6C6.33478 14.61 6.08043 14.5046 5.89289 14.3171C5.70536 14.1296 5.6 13.8752 5.6 13.61V12.61C5.6 12.3448 5.70536 12.0904 5.89289 11.9029C6.08043 11.7154 6.33478 11.61 6.6 11.61H7.6ZM13.6 11.61C13.7313 11.61 13.8614 11.6359 13.9827 11.6861C14.104 11.7364 14.2142 11.81 14.3071 11.9029C14.4 11.9958 14.4736 12.106 14.5239 12.2273C14.5741 12.3486 14.6 12.4787 14.6 12.61V13.61C14.6 13.8752 14.4946 14.1296 14.3071 14.3171C14.1196 14.5046 13.8652 14.61 13.6 14.61H12.6C12.3348 14.61 12.0804 14.5046 11.8929 14.3171C11.7054 14.1296 11.6 13.8752 11.6 13.61V12.61C11.6 12.3448 11.7054 12.0904 11.8929 11.9029C12.0804 11.7154 12.3348 11.61 12.6 11.61H13.6ZM7.6 12.61H6.6V13.61H7.6V12.61ZM13.6 12.61H12.6V13.61H13.6V12.61ZM7.6 7.61C7.86522 7.61 8.11957 7.71536 8.30711 7.90289C8.49464 8.09043 8.6 8.34478 8.6 8.61V9.61C8.6 9.87522 8.49464 10.1296 8.30711 10.3171C8.11957 10.5046 7.86522 10.61 7.6 10.61H6.6C6.33478 10.61 6.08043 10.5046 5.89289 10.3171C5.70536 10.1296 5.6 9.87522 5.6 9.61V8.61C5.6 8.34478 5.70536 8.09043 5.89289 7.90289C6.08043 7.71536 6.33478 7.61 6.6 7.61H7.6ZM7.6 8.61H6.6V9.61H7.6V8.61ZM12.6 8.61V9.61H13.6V8.61H12.6ZM13.6 7.61C13.7313 7.61 13.8614 7.63587 13.9827 7.68612C14.104 7.73637 14.2142 7.81003 14.3071 7.90289C14.4 7.99575 14.4736 8.10599 14.5239 8.22732C14.5741 8.34864 14.6 8.47868 14.6 8.61V9.61C14.6 9.87522 14.4946 10.1296 14.3071 10.3171C14.1196 10.5046 13.8652 10.61 13.6 10.61H12.6C12.3348 10.61 12.0804 10.5046 11.8929 10.3171C11.7054 10.1296 11.6 9.87522 11.6 9.61V8.61C11.6 8.34478 11.7054 8.09043 11.8929 7.90289C12.0804 7.71536 12.3348 7.61 12.6 7.61H13.6ZM4.5 0C4.63261 0 4.75979 0.0526785 4.85355 0.146447C4.94732 0.240215 5 0.367392 5 0.5V2.5C5 2.63261 4.94732 2.75979 4.85355 2.85355C4.75979 2.94732 4.63261 3 4.5 3C4.36739 3 4.24021 2.94732 4.14645 2.85355C4.05268 2.75979 4 2.63261 4 2.5V0.5C4 0.367392 4.05268 0.240215 4.14645 0.146447C4.24021 0.0526785 4.36739 0 4.5 0ZM15.5 0C15.6326 0 15.7598 0.0526785 15.8536 0.146447C15.9473 0.240215 16 0.367392 16 0.5V2.5C16 2.63261 15.9473 2.75979 15.8536 2.85355C15.7598 2.94732 15.6326 3 15.5 3C15.3674 3 15.2402 2.94732 15.1464 2.85355C15.0527 2.75979 15 2.63261 15 2.5V0.5C15 0.367392 15.0527 0.240215 15.1464 0.146447C15.2402 0.0526785 15.3674 0 15.5 0Z" fill="#3E3E52"/>
</svg>
