<svg width="49" height="48" viewBox="0 0 49 48" fill="none" xmlns="http://www.w3.org/2000/svg">
<g filter="url(#filter0_d_9446_5083)">
<rect x="8.5" y="40" width="32" height="32" rx="16" transform="rotate(-90 8.5 40)" fill="#3E3E52"/>
<path d="M29.1442 21.9857L21.9897 21.9857C21.7136 21.9857 21.4897 21.7618 21.4897 21.4857L21.4897 20.6857C21.4897 20.4095 21.7136 20.1857 21.9897 20.1857L29.1419 20.1857L29.1387 17.672C29.1383 17.3959 29.3619 17.1717 29.638 17.1714C29.75 17.1712 29.8588 17.2087 29.9469 17.2777L34.3019 20.6877C34.5193 20.858 34.5576 21.1723 34.3873 21.3897C34.3626 21.4212 34.3342 21.4497 34.3028 21.4744L29.9565 24.893C29.7395 25.0637 29.4251 25.0262 29.2544 24.8091C29.1852 24.7212 29.1475 24.6126 29.1474 24.5007L29.1442 21.9857ZM19.8373 26.1857L27.022 26.1857C27.2982 26.1857 27.522 26.4095 27.522 26.6857L27.522 27.4857C27.522 27.7618 27.2982 27.9857 27.022 27.9857L19.8396 27.9857L19.8428 30.4994C19.8431 30.7755 19.6196 30.9996 19.3434 31C19.2314 31.0001 19.1227 30.9627 19.0345 30.8937L14.6796 27.4836C14.4621 27.3134 14.4239 26.9991 14.5941 26.7817C14.6188 26.7501 14.6472 26.7217 14.6787 26.6969L19.0249 23.2783C19.242 23.1076 19.5563 23.1452 19.7271 23.3622C19.7962 23.4502 19.8339 23.5588 19.8341 23.6707L19.8373 26.1857Z" fill="white"/>
</g>
<defs>
<filter id="filter0_d_9446_5083" x="0.5" y="0" width="48" height="48" filterUnits="userSpaceOnUse" color-interpolation-filters="sRGB">
<feFlood flood-opacity="0" result="BackgroundImageFix"/>
<feColorMatrix in="SourceAlpha" type="matrix" values="0 0 0 0 0 0 0 0 0 0 0 0 0 0 0 0 0 0 127 0" result="hardAlpha"/>
<feOffset/>
<feGaussianBlur stdDeviation="4"/>
<feColorMatrix type="matrix" values="0 0 0 0 0 0 0 0 0 0 0 0 0 0 0 0 0 0 0.12 0"/>
<feBlend mode="normal" in2="BackgroundImageFix" result="effect1_dropShadow_9446_5083"/>
<feBlend mode="normal" in="SourceGraphic" in2="effect1_dropShadow_9446_5083" result="shape"/>
</filter>
</defs>
</svg>
