<svg width="24" height="24" viewBox="0 0 24 24" fill="none" xmlns="http://www.w3.org/2000/svg">
<g id="Help">
<path id="Vector" d="M11.75 23.98C11.2859 23.98 10.8408 23.7956 10.5126 23.4674C10.1844 23.1392 10 22.6941 10 22.23C10 21.7659 10.1844 21.3208 10.5126 20.9926C10.8408 20.6644 11.2859 20.48 11.75 20.48H12.75C13.0621 20.4799 13.3686 20.5634 13.6376 20.7216C13.9066 20.8799 14.1284 21.1072 14.28 21.38C15.6171 21.3402 16.9009 20.8465 17.92 19.98H17.75C17.5519 19.9774 17.3626 19.8976 17.2225 19.7575C17.0824 19.6174 17.0026 19.4281 17 19.23V12.23C17.0026 12.0319 17.0824 11.8426 17.2225 11.7025C17.3626 11.5624 17.5519 11.4826 17.75 11.48H19.02V11.23C19.02 9.44509 18.311 7.73329 17.0488 6.47117C15.7867 5.20905 14.0749 4.5 12.29 4.5C10.5051 4.5 8.7933 5.20905 7.53118 6.47117C6.26906 7.73329 5.56001 9.44509 5.56001 11.23V11.48H6.75001C6.94812 11.4826 7.13738 11.5624 7.27747 11.7025C7.41757 11.8426 7.49742 12.0319 7.50001 12.23V19.23C7.49742 19.4281 7.41757 19.6174 7.27747 19.7575C7.13738 19.8976 6.94812 19.9774 6.75001 19.98H5.25001C4.65327 19.98 4.08097 19.7429 3.65902 19.321C3.23706 18.899 3.00001 18.3267 3.00001 17.73V13.73C2.99898 13.3476 3.09586 12.9714 3.2814 12.637C3.46695 12.3027 3.73499 12.0214 4.06001 11.82V11.23C4.06001 9.04727 4.92709 6.95394 6.47052 5.41051C8.01394 3.86709 10.1073 3 12.29 3C14.4727 3 16.5661 3.86709 18.1095 5.41051C19.6529 6.95394 20.52 9.04727 20.52 11.23V11.87C20.8249 12.0758 21.0753 12.3526 21.2495 12.6766C21.4237 13.0006 21.5165 13.3621 21.52 13.73V17.73C21.521 18.2397 21.3481 18.7344 21.0299 19.1326C20.7118 19.5308 20.2673 19.8085 19.77 19.92C19.5892 20.3185 19.3424 20.6836 19.04 21C17.7596 22.1482 16.1185 22.8131 14.4 22.88C14.2664 23.2032 14.0406 23.4799 13.7507 23.6755C13.4608 23.8711 13.1197 23.9771 12.77 23.98H11.75ZM11.75 21.98C11.6837 21.98 11.6201 22.0063 11.5732 22.0532C11.5263 22.1001 11.5 22.1637 11.5 22.23C11.5 22.2963 11.5263 22.3599 11.5732 22.4068C11.6201 22.4537 11.6837 22.48 11.75 22.48H12.12V21.98H11.75ZM19.38 18.48C19.5539 18.4494 19.7115 18.3584 19.8249 18.223C19.9383 18.0877 20.0003 17.9166 20 17.74V13.73C19.9974 13.5319 19.9176 13.3426 19.7775 13.2025C19.6374 13.0624 19.4481 12.9826 19.25 12.98H18.5V18.48H19.38ZM5.25001 12.98C5.0519 12.9826 4.86264 13.0624 4.72254 13.2025C4.58245 13.3426 4.5026 13.5319 4.50001 13.73V17.73C4.5026 17.9281 4.58245 18.1174 4.72254 18.2575C4.86264 18.3976 5.0519 18.4774 5.25001 18.48H6.00001V12.98H5.25001Z" fill="#FCFCFC"/>
</g>
</svg>
