<svg width="48" height="49" viewBox="0 0 48 49" fill="none" xmlns="http://www.w3.org/2000/svg">
<path fill-rule="evenodd" clip-rule="evenodd" d="M18.2255 35.1959C10.4553 33.1336 9.27932 28.4449 13.653 23.4818L11.196 19.8026C3.76602 27.4663 8.2657 34.8963 18.2255 35.2029V35.1959ZM39.9147 20.8036C42.0147 28.5625 38.5412 31.9268 32.0549 30.6206L30.0949 34.5882C40.4481 37.1923 44.6328 29.579 39.9147 20.8022V20.8036ZM16.5552 9.23519C22.2212 3.53709 26.8748 4.86851 28.9889 11.1322L33.4046 10.8522C30.4869 0.578835 21.7997 0.760838 16.5566 9.23519H16.5552Z" fill="#2B2D93"/>
<path fill-rule="evenodd" clip-rule="evenodd" d="M27.7472 37.8741L27.1634 37.4947C23.4043 35.05 20.0146 32.0798 17.0972 28.6745C13.946 25.0219 11.42 20.8738 9.62108 16.3977C9.59308 16.3305 9.56508 16.2577 9.53848 16.1947L9.91368 16.0043C13.8703 13.9631 18.096 12.4925 22.4649 11.6362C27.3916 10.655 32.4504 10.5286 37.42 11.2624V11.2624C37.4088 11.4962 37.3948 11.7216 37.3808 11.9512C37.1487 16.3199 36.3081 20.6349 34.8831 24.7712C33.2693 29.5126 30.8542 33.9421 27.743 37.8671L27.7472 37.8741ZM30.0656 34.5896L29.521 34.3782C25.9785 33.01 22.6504 31.1411 19.6383 28.8285C16.3895 26.3556 13.572 23.3626 11.2997 19.9706L11.1947 19.8166C11.2871 19.7424 11.3795 19.6668 11.4747 19.594C14.3939 17.2139 17.6354 15.2592 21.1027 13.788C25.0104 12.1088 29.178 11.1142 33.4229 10.848V10.848C33.4551 11.0412 33.4845 11.233 33.5125 11.4318C34.0841 15.0926 34.1416 18.8153 33.6833 22.492C33.1779 26.7015 31.9547 30.7933 30.067 34.5896H30.0656Z" fill="#D3D4D6"/>
<path fill-rule="evenodd" clip-rule="evenodd" d="M20.0918 15.9371H24.5033C25.7115 16.2353 26.4396 16.8709 26.7616 17.6045C26.9311 17.997 26.9967 18.4267 26.952 18.8519C26.9042 19.2942 26.7532 19.7192 26.511 20.0923C25.9831 20.9086 25.0059 21.526 23.6773 21.5484C22.9017 21.4084 22.5111 22.2414 23.1677 22.877L27.589 26.9791H20.0918C19.9832 26.9787 19.879 26.9354 19.8022 26.8585C19.7253 26.7817 19.682 26.6775 19.6816 26.5689V16.3487C19.6816 16.2397 19.7248 16.1353 19.8017 16.0581C19.8786 15.981 19.9829 15.9374 20.0918 15.9371V15.9371ZM27.4854 15.9371H30.5654C30.6736 15.9378 30.7772 15.9811 30.8537 16.0576C30.9302 16.1341 30.9735 16.2377 30.9742 16.3459V26.5661C30.9739 26.6745 30.9307 26.7784 30.8542 26.8552C30.7776 26.932 30.6739 26.9755 30.5654 26.9763H29.8472L25.3517 22.8056C26.3603 22.4739 27.2249 21.8069 27.8018 20.9156C28.1742 20.3386 28.4053 19.6819 28.4766 18.9989C28.5348 18.4474 28.477 17.8898 28.3068 17.362C28.1365 16.8342 27.8577 16.3478 27.4882 15.9343L27.4854 15.9371Z" fill="#2B2D93"/>
<path fill-rule="evenodd" clip-rule="evenodd" d="M10.9884 44.8308V38.6791H13.0002V44.8308H10.9884Z" fill="#2B2D93"/>
<path fill-rule="evenodd" clip-rule="evenodd" d="M16.1549 41.3223H17.0537C17.3692 41.3223 17.5862 41.2803 17.7048 41.1963C17.7689 41.1422 17.8188 41.0732 17.85 40.9953C17.8813 40.9174 17.8929 40.8331 17.884 40.7497C17.8933 40.6654 17.8818 40.5801 17.8506 40.5013C17.8193 40.4224 17.7693 40.3525 17.7048 40.2974C17.5843 40.212 17.3547 40.17 17.0047 40.17H16.1549V41.3223ZM14.2047 44.8307V38.6776H17.1447C18.0674 38.6776 18.724 38.8176 19.1202 39.0976C19.5164 39.3776 19.7096 39.8256 19.7096 40.4542C19.7225 40.7826 19.6382 41.1074 19.4674 41.3881C19.2827 41.6553 19.0209 41.8599 18.717 41.9747C19.0117 42.0178 19.279 42.1715 19.4646 42.4045C19.6214 42.6173 19.6984 42.9295 19.7166 43.3383L19.7488 44.1937C19.7474 44.2006 19.7474 44.2078 19.7488 44.2147C19.7558 44.4597 19.8146 44.5885 19.9238 44.5997V44.8335H17.9428C17.9078 44.6851 17.8798 44.5535 17.8616 44.4471C17.8457 44.3626 17.8368 44.2769 17.835 44.1909V43.5763C17.835 43.2599 17.772 43.0364 17.646 42.9057C17.5199 42.7769 17.3043 42.7125 16.9949 42.7125H16.1549V44.8335L14.2047 44.8307Z" fill="#2B2D93"/>
<path fill-rule="evenodd" clip-rule="evenodd" d="M24.7237 42.4452H26.5956C26.5424 43.2572 26.2572 43.8868 25.7402 44.3338C25.2231 44.7809 24.5259 45.004 23.6485 45.003C22.661 45.003 21.885 44.7142 21.3203 44.1364C20.7556 43.5587 20.4728 42.7653 20.4719 41.7564C20.4719 40.7521 20.7519 39.9611 21.3119 39.3833C21.8719 38.8056 22.6349 38.5158 23.6009 38.5139C24.4932 38.5139 25.1932 38.7295 25.701 39.1607C26.212 39.5905 26.499 40.2107 26.5606 41.0046H24.6719C24.6755 40.882 24.6548 40.7599 24.6111 40.6453C24.5674 40.5308 24.5015 40.4259 24.4173 40.3369C24.333 40.2478 24.232 40.1762 24.12 40.1262C24.008 40.0762 23.8873 40.0488 23.7647 40.0455C23.7182 40.0415 23.6713 40.0415 23.6247 40.0455C23.4557 40.035 23.2869 40.0681 23.1344 40.1416C22.9819 40.2152 22.8509 40.3267 22.7539 40.4656C22.5598 40.7456 22.4627 41.1735 22.4627 41.7494C22.4627 42.3253 22.5658 42.7485 22.7721 43.0192C22.8753 43.1611 23.0124 43.2748 23.1709 43.3502C23.3294 43.4255 23.5041 43.4599 23.6793 43.4504C23.8122 43.4567 23.9449 43.4366 24.0699 43.3912C24.1949 43.3457 24.3096 43.2759 24.4073 43.1858C24.6008 42.9822 24.7128 42.7147 24.7223 42.434L24.7237 42.4452Z" fill="#2B2D93"/>
<path fill-rule="evenodd" clip-rule="evenodd" d="M28.7206 44.8308V40.3003H26.9496V38.6791H32.4321V40.3003H30.6975V44.8308H28.7206Z" fill="#2B2D93"/>
<path fill-rule="evenodd" clip-rule="evenodd" d="M37.0968 42.4452H38.97C38.914 43.2572 38.628 43.8868 38.1118 44.3338C37.5957 44.7809 36.8985 45.004 36.0202 45.003C35.0336 45.003 34.258 44.7142 33.6933 44.1364C33.1287 43.5587 32.8459 42.7653 32.8449 41.7564C32.8449 40.7521 33.1249 39.9611 33.6849 39.3833C34.245 38.8056 35.0084 38.5158 35.9754 38.5139C36.8658 38.5139 37.5658 38.7295 38.0754 39.1607C38.585 39.5905 38.872 40.2107 38.9336 41.0046H37.045C37.0518 40.7571 36.96 40.5171 36.7899 40.3373C36.6198 40.1574 36.3852 40.0525 36.1378 40.0455C36.0912 40.0415 36.0444 40.0415 35.9978 40.0455C35.8285 40.0341 35.6591 40.0667 35.5062 40.1403C35.3533 40.214 35.2221 40.326 35.1256 40.4656C34.9324 40.7456 34.8358 41.1735 34.8358 41.7494C34.8358 42.322 34.938 42.7448 35.1452 43.0192C35.248 43.1611 35.3848 43.275 35.5431 43.3503C35.7013 43.4257 35.876 43.4601 36.051 43.4504C36.1841 43.4571 36.3171 43.4371 36.4424 43.3917C36.5676 43.3462 36.6825 43.2762 36.7804 43.1858C36.9723 42.9812 37.0841 42.7143 37.0954 42.434L37.0968 42.4452Z" fill="#2B2D93"/>
<path d="M46.2606 6.58811C46.091 5.95927 46.1945 5.21873 45.8759 4.6685C45.5532 4.10999 44.8582 3.82866 44.4031 3.37358C43.948 2.9185 43.6667 2.22347 43.1082 1.90078C42.5579 1.58222 41.8174 1.68151 41.1886 1.51603C40.5804 1.35468 39.9888 0.891327 39.331 0.891327C38.6732 0.891327 38.0816 1.35468 37.4735 1.51603C36.8446 1.68565 36.1041 1.58222 35.5538 1.90078C34.9953 2.22347 34.714 2.9185 34.2589 3.37358C33.8038 3.82866 33.1088 4.10999 32.7861 4.6685C32.4676 5.21873 32.5669 5.95927 32.4014 6.58811C32.24 7.19626 31.7767 7.78786 31.7767 8.44566C31.7767 9.10346 32.24 9.69506 32.4014 10.3032C32.571 10.9321 32.4676 11.6726 32.7861 12.2228C33.1088 12.7813 33.8038 13.0627 34.2589 13.5177C34.714 13.9728 34.9953 14.6679 35.5538 14.9905C36.1041 15.3091 36.8446 15.2098 37.4735 15.3753C38.0816 15.5366 38.6732 16 39.331 16C39.9888 16 40.5804 15.5366 41.1886 15.3753C41.8174 15.2057 42.5579 15.3091 43.1082 14.9905C43.6667 14.6679 43.948 13.9728 44.4031 13.5177C44.8582 13.0627 45.5532 12.7813 45.8759 12.2228C46.1945 11.6726 46.0952 10.9321 46.2606 10.3032C46.422 9.69506 46.8853 9.10346 46.8853 8.44566C46.8853 7.78786 46.4261 7.19626 46.2606 6.58811Z" fill="#D84E55"/>
<path d="M38.425 11.8919L35.2353 8.70636L36.704 7.23769L38.425 8.95459L42.3759 5.00366L43.8446 6.47233L38.425 11.8919Z" fill="#F3FAFF"/>
</svg>
