<svg width="105" height="56" viewBox="0 0 105 56" fill="none" xmlns="http://www.w3.org/2000/svg">
<path d="M81.2792 12.5422H77.1955V29.5367H81.2792V12.5422Z" fill="white"/>
<path d="M4.58365 23.215C4.61657 22.8527 4.7255 22.5014 4.90335 22.1839C5.0812 21.8664 5.32398 21.5897 5.61592 21.372C6.21321 20.9198 6.99301 20.6944 7.95531 20.6958C8.16189 20.6932 8.36847 20.7013 8.57424 20.7197V16.9841C7.76138 16.9695 6.95875 17.1669 6.24568 17.5568C5.55475 17.949 4.98104 18.518 4.58365 19.2052V17.1441H0.5V29.5345H4.58365V23.215Z" fill="white"/>
<path d="M74.4169 17.1463H70.357V29.5368H74.4169V17.1463Z" fill="white"/>
<path d="M22.1107 23.6971C22.1107 21.6201 21.5675 19.986 20.4811 18.7948C19.3947 17.6037 17.8423 17.0082 15.824 17.0082C14.6437 16.9838 13.4762 17.2555 12.4285 17.7988C11.4675 18.3083 10.6779 19.0891 10.1584 20.0437C9.60717 21.0749 9.3307 22.2304 9.35548 23.399C9.33044 24.5484 9.60328 25.6848 10.1475 26.698C10.6711 27.6413 11.4655 28.4065 12.4285 28.8952C13.5102 29.4354 14.7079 29.7033 15.917 29.6752C16.9726 29.6917 18.0212 29.5008 19.003 29.1134C19.8942 28.752 20.6907 28.1918 21.3316 27.4757L19.1978 25.3456C18.8069 25.743 18.3434 26.062 17.8322 26.2853C17.3433 26.4972 16.8158 26.6061 16.2827 26.6051C15.6398 26.6249 15.009 26.4268 14.493 26.0433C13.9803 25.6335 13.6174 25.0662 13.4608 24.4294H22.0869C22.102 24.2609 22.1107 24.0169 22.1107 23.6971ZM13.3699 22.2537C13.4701 21.5976 13.7727 20.989 14.2355 20.5125C14.6802 20.0967 15.2667 19.8654 15.8759 19.8654C16.4851 19.8654 17.0716 20.0967 17.5163 20.5125C17.7302 20.7449 17.896 21.0172 18.0041 21.3138C18.1121 21.6104 18.1604 21.9256 18.146 22.2409L13.3699 22.2537Z" fill="white"/>
<path d="M53.1525 22.2429C53.6618 21.281 53.9144 20.2044 53.8862 19.1167C53.8862 17.3293 53.3011 15.9429 52.1311 14.9577C50.961 13.9725 49.3127 13.4807 47.1861 13.4821H39.9602V29.5367H44.1585V25.0927H47.2792L49.6186 29.5367H54.3666L51.0252 24.2912C51.9217 23.8336 52.662 23.1207 53.1525 22.2429ZM49.1944 21.1086C48.727 21.5407 48.0655 21.7568 47.2099 21.7568H44.1585V16.8309H47.2099C48.064 16.8309 48.7255 17.0412 49.1944 17.4617C49.6597 17.8809 49.8934 18.4816 49.8934 19.2593C49.8934 20.0371 49.6597 20.6809 49.1944 21.1086Z" fill="white"/>
<path d="M36.7248 29.5367V13.4821H32.6411V18.7732C32.2108 18.2186 31.6574 17.7712 31.0246 17.4662C30.3529 17.1533 29.6189 16.9966 28.8778 17.0081C27.8304 16.9859 26.7976 17.2558 25.8957 17.7879C25.0326 18.3134 24.3398 19.0763 23.9004 19.9851C23.4082 21.0142 23.1643 22.1442 23.1884 23.2843C23.1653 24.4436 23.4128 25.5924 23.9112 26.6397C24.3582 27.5696 25.0626 28.3522 25.9411 28.8951C26.8554 29.4415 27.9055 29.7193 28.9708 29.6967C29.6952 29.7082 30.4129 29.5562 31.07 29.2517C31.6949 28.949 32.2348 28.496 32.6411 27.9336V29.5367H36.7248ZM31.9075 25.6263C31.6729 25.907 31.3773 26.1306 31.0432 26.2804C30.7092 26.4301 30.3453 26.502 29.9793 26.4905C29.6104 26.5024 29.2436 26.4309 28.9063 26.2812C28.569 26.1315 28.27 25.9076 28.0316 25.6263C27.5483 24.9814 27.2872 24.1977 27.2872 23.3924C27.2872 22.587 27.5483 21.8033 28.0316 21.1584C28.2761 20.8892 28.5741 20.6738 28.9066 20.5261C29.2391 20.3784 29.5989 20.3016 29.9629 20.3006C30.3268 20.2995 30.687 20.3743 31.0203 20.5202C31.3537 20.666 31.6529 20.8796 31.8989 21.1475C32.3879 21.7135 32.6325 22.4619 32.6325 23.3924C32.671 24.2003 32.4133 24.9945 31.9075 25.6263Z" fill="white"/>
<path d="M60.3546 22.094C58.8238 22.1084 57.6502 22.4439 56.8336 23.1007C56.017 23.7575 55.608 24.6714 55.6066 25.8424C55.6066 27.0048 55.9845 27.941 56.7405 28.6511C57.4965 29.3612 58.5331 29.7162 59.8503 29.7162C61.5167 29.7162 62.7632 29.1891 63.5899 28.1348V29.5326H67.6043V21.4716C67.5884 20.05 67.1066 18.9469 66.1587 18.1619C65.2108 17.3769 63.8806 16.9844 62.1681 16.9844C61.1983 16.9815 60.2315 17.0925 59.2877 17.315C58.2903 17.5628 57.3186 17.9042 56.3856 18.3347L57.5174 21.0893C58.1449 20.7805 58.8017 20.5352 59.4781 20.357C60.0502 20.1994 60.6399 20.1145 61.2332 20.1042C61.9971 20.1042 62.5836 20.2662 62.9883 20.5859C63.1913 20.7506 63.3523 20.961 63.458 21.1999C63.5637 21.4388 63.6111 21.6993 63.5964 21.9601V22.0983L60.3546 22.094ZM63.5899 25.3456C63.4606 25.8275 63.1507 26.2412 62.7243 26.5014C62.245 26.8054 61.6862 26.9611 61.1185 26.9486C60.6773 26.9741 60.2416 26.8398 59.8915 26.5706C59.744 26.4462 59.627 26.2899 59.5494 26.1136C59.4718 25.9372 59.4355 25.7455 59.4435 25.553C59.4435 24.6974 60.017 24.2695 61.1639 24.2695H63.5964L63.5899 25.3456Z" fill="white"/>
<path d="M73.9019 12.0497C73.4811 11.6593 72.9279 11.4423 72.3535 11.4423C71.779 11.4423 71.2258 11.6593 70.8051 12.0497C70.4139 12.4766 70.197 13.0341 70.197 13.6127C70.197 14.1913 70.4139 14.749 70.8051 15.1759C71.2227 15.5726 71.777 15.7939 72.3535 15.7939C72.9299 15.7939 73.4843 15.5726 73.9019 15.1759C74.293 14.749 74.5099 14.1913 74.5099 13.6127C74.5099 13.0341 74.293 12.4766 73.9019 12.0497Z" fill="white"/>
<path d="M103.507 37.3424L101.163 40.1833H99.7952L100.18 30.3488C100.213 29.4502 100.066 28.5542 99.7476 27.7129L92.513 8.37851C92.0248 7.08694 91.1548 5.97406 90.0186 5.18733C88.8823 4.4006 87.5334 3.97723 86.1506 3.97331H73.7482L71.4975 1.45201C71.0897 0.995001 70.5896 0.629381 70.0301 0.379145C69.4706 0.12891 68.8644 -0.000423225 68.2514 1.3439e-06H62.062C61.155 -0.000711933 60.2706 0.282522 59.5331 0.809559C58.7956 1.3366 58.242 2.08106 57.9502 2.93842L57.5975 3.97331H0.5V8.07828H86.1592C86.7037 8.07918 87.235 8.24485 87.6832 8.55342C88.1313 8.86199 88.4753 9.29896 88.6696 9.80668L95.9042 29.1388C96.0294 29.4712 96.0861 29.8254 96.0708 30.1802L95.625 41.6136C95.5997 42.3048 95.3064 42.9591 94.8069 43.4384C94.3074 43.9178 93.6408 44.1845 92.948 44.1824H83.4866C82.9568 44.183 82.4389 44.0268 81.9981 43.7334C81.5574 43.44 81.2138 43.0224 81.0109 42.5339L79.2168 38.2129C78.7506 37.0833 77.9581 36.1178 76.9402 35.4395C75.9223 34.7612 74.7252 34.4006 73.5014 34.404H73.482L17.8928 34.62C16.7384 34.6195 15.6072 34.9434 14.6286 35.5547C13.65 36.166 12.8635 37.0401 12.3592 38.0768L11.4655 39.8852C11.2431 40.3325 10.9004 40.7092 10.4758 40.9733C10.0512 41.2373 9.56139 41.3782 9.06116 41.3803H0.5V45.4852H9.06116C10.1562 45.4805 11.2342 45.2134 12.2043 44.7063C13.1744 44.1991 14.0083 43.4666 14.6359 42.5707C13.9222 45.1506 14.212 47.9046 15.4471 50.2801C16.6822 52.6557 18.7714 54.4774 21.2955 55.3795C23.8196 56.2816 26.592 56.1975 29.0566 55.1442C31.5213 54.091 33.4959 52.1463 34.5845 49.7003H29.7478C28.8701 50.6858 27.7131 51.3818 26.4301 51.6956C25.1472 52.0095 23.799 51.9266 22.5644 51.4579C21.3298 50.9891 20.2671 50.1568 19.5172 49.0712C18.7673 47.9856 18.3658 46.698 18.3658 45.3793C18.3658 44.0606 18.7673 42.7731 19.5172 41.6875C20.2671 40.6019 21.3298 39.7697 22.5644 39.301C23.799 38.8323 25.1472 38.7493 26.4301 39.0632C27.7131 39.3771 28.8701 40.0728 29.7478 41.0583H34.578C34.1918 40.1999 33.6933 39.3965 33.0956 38.6689L37.5861 38.6495C36.9806 39.3815 36.4769 40.1917 36.0886 41.0583H40.9253C41.5356 40.3723 42.2847 39.8232 43.123 39.4472C43.9614 39.0712 44.87 38.8767 45.7891 38.8767C46.7082 38.8767 47.6169 39.0712 48.4552 39.4472C49.2936 39.8232 50.0426 40.3723 50.6529 41.0583H55.4918C55.0904 40.1667 54.5683 39.3345 53.9402 38.5847L58.5692 38.5651C57.9329 39.3195 57.4049 40.1586 57.0002 41.0583H61.8456C62.7234 40.0721 63.8808 39.3756 65.1642 39.0613C66.4476 38.747 67.7965 38.8297 69.0317 39.2985C70.267 39.7672 71.3303 40.5999 72.0806 41.686C72.8309 42.772 73.2327 44.06 73.2327 45.3793C73.2327 46.6986 72.8309 47.9868 72.0806 49.0729C71.3303 50.1589 70.267 50.9914 69.0317 51.4602C67.7965 51.9289 66.4476 52.0116 65.1642 51.6973C63.8808 51.383 62.7234 50.6865 61.8456 49.7003H57.0067C57.9982 51.9192 59.7227 53.7309 61.8917 54.8328C64.0607 55.9347 66.5428 56.2599 68.9231 55.754C71.3035 55.248 73.4377 53.9416 74.969 52.0533C76.5004 50.1649 77.336 47.8089 77.3362 45.3793C77.3361 45.0004 77.3151 44.6217 77.2735 44.245C77.8028 45.4482 78.6721 46.4712 79.7748 47.1887C80.8776 47.9063 82.166 48.2874 83.4823 48.2852H92.948C94.2677 48.289 95.5598 47.9076 96.6652 47.1879C97.7706 46.4682 98.6411 45.4415 99.1698 44.2343H101.321L103.511 46.5828C103.588 46.6645 103.687 46.7214 103.797 46.7461C103.906 46.7707 104.02 46.7619 104.125 46.721C104.229 46.68 104.319 46.6088 104.382 46.5163C104.446 46.4239 104.48 46.3146 104.48 46.2026L104.5 37.7053C104.502 37.5894 104.467 37.4758 104.401 37.3804C104.335 37.2849 104.241 37.2122 104.132 37.1723C104.023 37.1325 103.904 37.1273 103.792 37.1578C103.68 37.1882 103.58 37.2529 103.507 37.3424Z" fill="white"/>
<path d="M45.7967 51.8765C44.8771 51.8771 43.9679 51.6827 43.1292 51.3062C42.2905 50.9296 41.5415 50.3794 40.9318 49.6921H36.0929C36.9278 51.5648 38.2886 53.1558 40.0104 54.2722C41.7323 55.3887 43.7414 55.9829 45.7946 55.9829C47.8477 55.9829 49.8569 55.3887 51.5787 54.2722C53.3006 53.1558 54.6613 51.5648 55.4962 49.6921H50.6595C50.05 50.3791 49.3014 50.9292 48.4631 51.3058C47.6248 51.6823 46.716 51.8768 45.7967 51.8765Z" fill="white"/>
<path d="M68.7707 45.371C68.7707 44.8267 68.5541 44.3048 68.1686 43.9199C67.783 43.5349 67.2601 43.3186 66.7148 43.3186H24.8828C24.3376 43.3186 23.8147 43.5349 23.4291 43.9199C23.0435 44.3048 22.827 44.8267 22.827 45.371C22.827 45.9154 23.0435 46.4375 23.4291 46.8224C23.8147 47.2073 24.3376 47.4235 24.8828 47.4235H66.7083C66.9789 47.4244 67.2469 47.372 67.4971 47.2693C67.7473 47.1665 67.9747 47.0154 68.1663 46.8247C68.3579 46.634 68.5099 46.4074 68.6136 46.158C68.7173 45.9086 68.7707 45.6411 68.7707 45.371Z" fill="white"/>
</svg>
