<svg xmlns="http://www.w3.org/2000/svg" xmlns:xlink="http://www.w3.org/1999/xlink" width="46" height="31" viewBox="0 0 46 31">
    <defs>
        <path id="prefix__a" d="M1.906 6.554C5.139 3.484 19.346.689 31.709.689c2.6 0 5.112.116 7.468.345 1.461.161 2.803 1.315 3.886 3.34 2.558 4.777 3.193 13.024 1.306 16.972l-.15.31-5.037.585c.19.534.294 1.113.294 1.716 0 2.771-2.192 5.025-4.887 5.025-2.694 0-4.884-2.254-4.884-5.025 0-.211.014-.421.04-.625l-12.103 1.4c.043.263.064.531.064.805 0 2.772-2.192 5.025-4.885 5.025-2.592 0-4.716-2.084-4.876-4.709l-4.78.555-.15-.506c-.011-.039-1.172-3.971-1.908-8.238C.08 11.676.34 8.041 1.906 6.554zm.415 10.878c.569 3.305 1.398 6.41 1.73 7.594l3.874-.448c.387-2.39 2.41-4.193 4.814-4.193 1.659 0 3.177.88 4.069 2.253.183.268.343.555.475.858L29.95 22.03c.718-1.918 2.536-3.225 4.56-3.225 1.636 0 3.156.844 4.058 2.228l4.831-.558c1.537-3.7.873-11.214-1.416-15.489-.613-1.147-1.62-2.545-2.93-2.689-2.309-.224-4.782-.338-7.343-.338-13.033 0-26.274 2.971-28.967 5.527-.683.651-1.647 2.805-.421 9.946zm28.618 6.525c0 2.07 1.637 3.756 3.65 3.756 2.016 0 3.654-1.686 3.654-3.756 0-.56-.122-1.093-.337-1.57l-.2-.372c-.034-.062-.07-.123-.108-.184-.659-.982-1.761-1.628-3.009-1.628-2.013 0-3.65 1.684-3.65 3.754zm-21.77 1.58c0 2.07 1.638 3.755 3.652 3.755 2.014 0 3.652-1.686 3.652-3.755 0-.226-.022-.447-.059-.663l-.025.003-.144-.514c-.103-.362-.258-.698-.452-1.002-.664-.955-1.748-1.577-2.972-1.577-2.014 0-3.652 1.684-3.652 3.753z"/>
        <path id="prefix__c" d="M13.343 2.257C19.11 1.12 25.803.47 31.709.47c2.606 0 5.125.117 7.49.346 1.53.17 2.931 1.364 4.05 3.453 2.586 4.828 3.222 13.173 1.31 17.173l-.2.42-4.893.564c.148.496.222 1.008.222 1.531 0 2.892-2.287 5.242-5.099 5.242-2.81 0-5.097-2.35-5.097-5.242 0-.123.006-.25.014-.378l-11.623 1.345c.023.204.036.41.036.613 0 2.89-2.288 5.244-5.098 5.244-2.612 0-4.796-2.041-5.068-4.685l-4.74.548-.201-.678c-.013-.039-1.177-3.987-1.914-8.263-1.042-6.069-.76-9.769.863-11.31 1.57-1.489 5.792-2.999 11.582-4.136zM3.217 25.838l.098.332 4.829-.559.014.23c.152 2.523 2.2 4.502 4.663 4.502 2.577 0 4.674-2.155 4.674-4.806 0-.254-.022-.513-.063-.77l-.035-.227 12.59-1.457-.033.275c-.025.206-.038.407-.038.6 0 2.649 2.098 4.805 4.673 4.805 2.578 0 4.675-2.156 4.675-4.806 0-.564-.094-1.116-.282-1.642l-.092-.26 5.191-.6.098-.206c1.862-3.894 1.23-12.045-1.3-16.77-1.05-1.96-2.338-3.077-3.725-3.227-2.347-.229-4.852-.345-7.445-.345-5.879 0-12.545.648-18.285 1.778C7.708 3.808 3.562 5.278 2.049 6.714.541 8.147.301 11.715 1.318 17.626c.731 4.251 1.888 8.174 1.899 8.212zm10.09-22.286C19.103 2.384 25.638 1.74 31.71 1.74c2.568 0 5.045.113 7.364.338 1.4.156 2.457 1.61 3.096 2.803 1.101 2.057 1.891 4.988 2.167 8.043.275 3.05.006 5.833-.742 7.635l-.048.117-5.083.588-.072-.11c-.87-1.335-2.322-2.132-3.883-2.132-1.92 0-3.67 1.239-4.36 3.085l-.046.123-.13.016-12.821 1.482-.062-.145c-.124-.287-.278-.562-.455-.82l-.004-.004c-.874-1.35-2.33-2.157-3.891-2.157-1.108 0-2.183.406-3.026 1.147-.838.735-1.4 1.752-1.577 2.863l-.028.164-4.211.488-.05-.177c-.332-1.186-1.164-4.302-1.734-7.62-.544-3.156-.716-5.67-.51-7.468.149-1.288.483-2.187.996-2.673 1.376-1.306 5.28-2.684 10.709-3.775zM2.532 17.395c.54 3.142 1.318 6.103 1.675 7.393l3.538-.41c.224-1.148.82-2.193 1.694-2.96.92-.807 2.092-1.25 3.3-1.25 1.704 0 3.29.876 4.243 2.347.164.236.306.486.43.747L29.8 21.829c.782-1.945 2.658-3.241 4.708-3.241 1.66 0 3.205.824 4.16 2.213l4.584-.529c1.46-3.709.767-11.03-1.455-15.178-.59-1.104-1.55-2.446-2.766-2.58-2.303-.224-4.767-.337-7.322-.337-6.046 0-12.553.64-18.32 1.801-5.276 1.063-9.201 2.435-10.503 3.67-1.576 1.495-.773 7.312-.355 9.747zm28.196 6.562c0-2.19 1.732-3.972 3.862-3.972 1.271 0 2.461.645 3.184 1.723l.006.009c.046.075.08.137.113.193l.132.247.01-.002.064.14c.235.524.357 1.086.357 1.662 0 2.19-1.734 3.973-3.866 3.973-2.13 0-3.862-1.783-3.862-3.973zm.424 0c0 1.95 1.543 3.537 3.438 3.537 1.897 0 3.44-1.587 3.44-3.537 0-.506-.102-.996-.306-1.459l-.003-.005-.2-.372c-.026-.048-.058-.101-.099-.168-.644-.961-1.703-1.533-2.832-1.533-1.895 0-3.438 1.587-3.438 3.537zm-22.194 1.58c0-2.19 1.733-3.971 3.864-3.971 1.242 0 2.417.623 3.144 1.668l.006.007c.211.333.373.691.477 1.061l.094.338.045-.005.036.2c.041.235.06.472.06.702 0 2.19-1.733 3.972-3.862 3.972-2.131 0-3.864-1.781-3.864-3.972zm.424 0c0 1.95 1.543 3.537 3.44 3.537 1.896 0 3.439-1.587 3.439-3.537 0-.139-.01-.282-.025-.424l-.193-.69c-.094-.328-.236-.643-.425-.94-.646-.929-1.691-1.481-2.796-1.481-1.897 0-3.44 1.585-3.44 3.535z"/>
        <path id="prefix__e" d="M3.418.72c-.231.072-.435.165-.613.276l-.573.354V.716L.442.84v6.5h1.79V2.96c.15-.15.336-.275.563-.378.225-.102.499-.152.826-.152.28 0 .525.034.73.105.208.073.368.155.483.249V.735c-.067-.03-.163-.06-.287-.086C4.422.624 4.257.61 4.053.61c-.193 0-.405.036-.635.11z"/>
        <path id="prefix__g" d="M.98 1.44C1.622.79 2.42.466 3.38.466c.962 0 1.724.347 2.294 1.045.57.696.853 1.65.85 2.864H1.85c.096.523.3.902.603 1.133.306.232.675.349 1.113.349.35 0 .737-.054 1.16-.16.425-.11.76-.252 1.005-.426v1.65c-.23.168-.578.302-1.042.397-.464.098-.836.149-1.117.149-1.117 0-1.986-.313-2.612-.94C.333 5.898.02 5.058.02 4.005c0-1.058.32-1.914.96-2.565zm1.28.975c-.237.272-.38.63-.43 1.08h3.027c-.09-.49-.268-.86-.539-1.11-.27-.25-.604-.375-1.003-.375-.467 0-.816.137-1.055.405z"/>
        <path id="prefix__i" d="M4.55.09h1.77v9.277H4.958l-.385-.607-.948.536c-.079.045-.193.078-.342.1-.15.022-.28.035-.388.035-.926 0-1.629-.32-2.109-.96C.306 7.832.065 7.03.06 6.066.056 5.02.345 4.187.925 3.567c.582-.619 1.35-.928 2.304-.928.274 0 .515.022.724.066.207.046.407.122.598.236V.09zM2.27 7.355c.254.324.598.487 1.032.487.278 0 .525-.048.734-.145.212-.094.383-.207.515-.337V4.508c-.097-.127-.258-.237-.482-.33-.226-.093-.47-.14-.733-.14-.488 0-.85.15-1.09.444-.236.294-.358.764-.358 1.407 0 .654.128 1.143.381 1.467z"/>
        <path id="prefix__k" d="M.016.09H3.8c.712 0 1.293.207 1.742.625.448.414.673.978.673 1.69 0 .575-.134 1.037-.4 1.387-.265.35-.67.564-1.209.639.538.09 1.002.327 1.39.711.39.385.584.898.584 1.54 0 .813-.253 1.463-.762 1.953-.507.488-1.155.732-1.937.732H.016V.089zm1.951 1.544v2.487h1.195c.356 0 .628-.11.817-.33.19-.222.285-.526.285-.913 0-.37-.105-.669-.314-.899-.21-.228-.509-.345-.9-.345H1.967zm0 3.407v2.78h1.405c.41 0 .716-.123.918-.364.2-.243.3-.583.3-1.026 0-.474-.13-.823-.383-1.05-.254-.227-.59-.34-1.005-.34H1.967z"/>
        <path id="prefix__m" d="M4.443.135V4.44c-.122.116-.297.242-.527.38-.228.136-.502.207-.82.207-.344 0-.597-.091-.763-.272-.165-.182-.249-.392-.249-.628V.136H.297v4.41c0 .653.178 1.178.537 1.575.36.398.85.596 1.475.596.26 0 .508-.034.734-.1.227-.066.446-.158.652-.28l.748-.435v.732H6.23V.135H4.443z"/>
        <path id="prefix__o" d="M1.104 1.074C.61 1.482.364 2 .364 2.629c0 .555.16.999.483 1.33.321.33.88.53 1.68.598.449.04.76.116.94.226.182.112.271.257.271.432 0 .265-.106.448-.32.552-.214.1-.495.152-.844.152-.487 0-.915-.063-1.282-.185-.369-.125-.697-.272-.988-.443v1.65c.367.206.79.345 1.264.417.476.07.885.108 1.226.108.727 0 1.337-.217 1.83-.648.494-.43.74-1.002.74-1.712 0-.578-.193-1.04-.578-1.382-.387-.344-.963-.54-1.732-.592-.251-.017-.492-.064-.72-.143-.23-.08-.343-.241-.343-.488 0-.13.081-.244.24-.344.164-.097.387-.147.675-.147.359 0 .69.035 1 .102.31.069.618.174.93.318V.756C4.586.672 4.28.604 3.924.55 3.567.494 3.232.465 2.917.465c-.717 0-1.322.204-1.813.609z"/>
    </defs>
    <g fill="none" fill-rule="evenodd">
        <g transform="translate(0 .11)">
            <mask id="prefix__b" fill="#fff">
                <use xlink:href="#prefix__a"/>
            </mask>
            <path fill="#FFF" d="M-4.56 35.63L50.513 35.63 50.513 -4.38 -4.56 -4.38z" mask="url(#prefix__b)"/>
        </g>
        <g transform="translate(0 .11)">
            <mask id="prefix__d" fill="#fff">
                <use xlink:href="#prefix__c"/>
            </mask>
            <path fill="#FFF" d="M-4.768 35.849L50.721 35.849 50.721 -4.598 -4.768 -4.598z" mask="url(#prefix__d)"/>
        </g>
        <g transform="translate(3.031 9.234)">
            <mask id="prefix__f" fill="#fff">
                <use xlink:href="#prefix__e"/>
            </mask>
            <path fill="#FFF" d="M-4.608 12.409L9.885 12.409 9.885 -4.458 -4.608 -4.458z" mask="url(#prefix__f)"/>
        </g>
        <g transform="translate(8.083 9.234)">
            <mask id="prefix__h" fill="#fff">
                <use xlink:href="#prefix__g"/>
            </mask>
            <path fill="#FFF" d="M-5.031 12.534L11.576 12.534 11.576 -4.605 -5.031 -4.605z" mask="url(#prefix__h)"/>
        </g>
        <g transform="translate(15.156 7.206)">
            <mask id="prefix__j" fill="#fff">
                <use xlink:href="#prefix__i"/>
            </mask>
            <path fill="#FFF" d="M-4.992 14.499L11.371 14.499 11.371 -4.98 -4.992 -4.98z" mask="url(#prefix__j)"/>
        </g>
        <g transform="translate(22.932 7.206)">
            <mask id="prefix__l" fill="#fff">
                <use xlink:href="#prefix__k"/>
            </mask>
            <path fill="#FFF" d="M-5.036 14.436L11.632 14.436 11.632 -4.98 -5.036 -4.98z" mask="url(#prefix__l)"/>
        </g>
        <g transform="translate(30.311 9.94)">
            <mask id="prefix__n" fill="#fff">
                <use xlink:href="#prefix__m"/>
            </mask>
            <path fill="#FFF" d="M-4.755 11.786L11.283 11.786 11.283 -4.934 -4.755 -4.934z" mask="url(#prefix__n)"/>
        </g>
        <g transform="translate(37.384 9.234)">
            <mask id="prefix__p" fill="#fff">
                <use xlink:href="#prefix__o"/>
            </mask>
            <path fill="#FFF" d="M-4.748 12.534L10.416 12.534 10.416 -4.604 -4.748 -4.604z" mask="url(#prefix__p)"/>
        </g>
    </g>
</svg>
