<svg width="48" height="49" viewBox="0 0 48 49" fill="none" xmlns="http://www.w3.org/2000/svg">
<path fill-rule="evenodd" clip-rule="evenodd" d="M20.5711 18.4543H20.4784C20.4133 18.4543 20.3633 18.4017 20.3633 18.3391V13.7555C20.3633 13.6904 20.4159 13.6403 20.4784 13.6403H20.5711V4.56076C20.5711 3.41925 21.4848 2.49051 22.6263 2.47048C25.2723 2.42542 27.668 2.40289 29.8209 2.40289C31.9737 2.40289 34.3694 2.42542 37.0154 2.47048C38.157 2.49051 39.0707 3.41925 39.0707 4.56076V8.40839H39.1157C39.1808 8.40839 39.2309 8.46095 39.2309 8.52354V10.4386C39.2309 10.5037 39.1783 10.5537 39.1157 10.5537H39.0707V13.6954H39.1157C39.1483 13.6954 39.1733 13.7205 39.1733 13.753V16.6519C39.1733 16.6844 39.1483 16.7094 39.1157 16.7094H39.0582V37.6448C39.0582 38.7813 38.152 39.71 37.0154 39.7376C34.7675 39.7876 32.3668 39.8127 29.8159 39.8127C27.265 39.8127 24.8643 39.7876 22.6163 39.7376C21.4798 39.7125 20.5736 38.7838 20.5736 37.6448V18.4543H20.5711Z" fill="#0B2139"/>
<path fill-rule="evenodd" clip-rule="evenodd" d="M21.6874 39.1543C21.9828 39.317 22.2607 39.4021 23.0693 39.4021H36.5247C37.3333 39.4021 37.6111 39.3145 37.9065 39.1543C38.1719 39.0091 38.3897 38.7913 38.5349 38.526C38.6976 38.2306 38.7827 37.9502 38.7827 37.1441V5.00385C38.7827 4.19528 38.6951 3.91741 38.5349 3.62202C38.3897 3.35666 38.1719 3.13887 37.9065 2.99368C37.6111 2.83096 37.3333 2.74585 36.5247 2.74585H23.0693C22.2607 2.74585 21.9828 2.83347 21.6874 2.99368C21.4221 3.13887 21.2043 3.35666 21.0591 3.62202C20.8964 3.91741 20.8113 4.19778 20.8113 5.00385V37.1441C20.8113 37.9527 20.8989 38.2306 21.0591 38.526C21.2043 38.7913 21.4221 39.0091 21.6874 39.1543Z" fill="#19335D"/>
<path d="M38.237 3.81226C38.1219 3.60448 37.9517 3.43175 37.7439 3.3191C37.5061 3.18893 37.2858 3.11884 36.6399 3.11884H34.2142L34.1416 3.77721C34.0965 4.17774 33.7586 4.48065 33.3555 4.48065H26.1835C25.7604 4.48065 25.415 4.15021 25.3949 3.72715L25.3674 3.11884H22.9417C22.2958 3.11884 22.0755 3.18893 21.8377 3.3191C21.6299 3.43426 21.4572 3.60448 21.3446 3.81226C21.2144 4.05008 21.1443 4.27037 21.1443 4.91623V36.4457C21.1443 37.0916 21.2144 37.3118 21.3446 37.5497C21.4597 37.7574 21.6299 37.9302 21.8377 38.0428C22.0755 38.173 22.2958 38.2431 22.9417 38.2431H36.6399C37.2858 38.2431 37.5061 38.173 37.7439 38.0428C37.9517 37.9277 38.1244 37.7574 38.237 37.5497C38.3672 37.3118 38.4373 37.0916 38.4373 36.4457V4.91623C38.4348 4.27037 38.3672 4.05008 38.237 3.81226Z" fill="#F4EFEF"/>
<path d="M26.7368 3.94495C26.8833 3.94495 27.0021 3.82615 27.0021 3.6796C27.0021 3.53305 26.8833 3.41425 26.7368 3.41425C26.5902 3.41425 26.4714 3.53305 26.4714 3.6796C26.4714 3.82615 26.5902 3.94495 26.7368 3.94495Z" fill="#0B2139"/>
<path d="M32.8598 3.94495C33.0064 3.94495 33.1252 3.82615 33.1252 3.6796C33.1252 3.53305 33.0064 3.41425 32.8598 3.41425C32.7133 3.41425 32.5945 3.53305 32.5945 3.6796C32.5945 3.82615 32.7133 3.94495 32.8598 3.94495Z" fill="#0B2139"/>
<path d="M31.8988 3.89737H27.593C27.4729 3.89737 27.3752 3.79974 27.3752 3.67958C27.3752 3.55942 27.4729 3.46179 27.593 3.46179H31.8988C32.0189 3.46179 32.1166 3.55942 32.1166 3.67958C32.1166 3.79974 32.0189 3.89737 31.8988 3.89737Z" fill="#0B2139"/>
<path d="M34.124 41.3547C34.124 41.6251 36.1017 41.8429 38.5424 41.8429C40.9832 41.8429 42.9608 41.6226 42.9608 41.3547C42.9608 41.3497 42.9608 41.3447 42.9583 41.3397V40.0179H34.1265V41.3347C34.124 41.3447 34.124 41.3497 34.124 41.3547Z" fill="#F49B51"/>
<path d="M34.124 40.033C34.124 40.3033 36.1017 40.5211 38.5424 40.5211C40.9832 40.5211 42.9608 40.3033 42.9608 40.033C42.9608 39.7626 40.9832 39.5448 38.5424 39.5448C36.1017 39.5423 34.124 39.7626 34.124 40.033Z" fill="#FFCB64"/>
<path d="M33.0776 39.7626C33.0776 40.0329 35.0553 40.2507 37.496 40.2507C39.9368 40.2507 41.9144 40.0304 41.9144 39.7626C41.9144 39.7576 41.9144 39.7525 41.9119 39.7475V38.4258H33.0801V39.7425C33.0801 39.75 33.0776 39.7551 33.0776 39.7626Z" fill="#F49B51"/>
<path d="M33.0801 38.4383C33.0801 38.7087 35.0577 38.9265 37.4985 38.9265C39.9392 38.9265 41.9168 38.7087 41.9168 38.4383C41.9168 38.168 39.9392 37.9502 37.4985 37.9502C35.0577 37.9502 33.0801 38.168 33.0801 38.4383Z" fill="#FFCB64"/>
<path d="M34.124 38.1681C34.124 38.4384 36.1017 38.6562 38.5424 38.6562C40.9832 38.6562 42.9608 38.4359 42.9608 38.1681C42.9608 38.1631 42.9608 38.1581 42.9583 38.1531V36.8313H34.1265V38.1481C34.124 38.1581 34.124 38.1631 34.124 38.1681Z" fill="#F49B51"/>
<path d="M38.54 37.3344C40.9802 37.3344 42.9583 37.1158 42.9583 36.8462C42.9583 36.5766 40.9802 36.3581 38.54 36.3581C36.0998 36.3581 34.1216 36.5766 34.1216 36.8462C34.1216 37.1158 36.0998 37.3344 38.54 37.3344Z" fill="#FFCB64"/>
<path d="M32.5569 36.5759C32.5569 36.8462 34.5345 37.064 36.9753 37.064C39.416 37.064 41.3937 36.8437 41.3937 36.5759C41.3937 36.5709 41.3936 36.5658 41.3911 36.5608V35.2391H32.5594V36.5583C32.5569 36.5633 32.5569 36.5683 32.5569 36.5759Z" fill="#F49B51"/>
<path d="M36.9753 35.7398C39.4155 35.7398 41.3936 35.5212 41.3936 35.2516C41.3936 34.982 39.4155 34.7635 36.9753 34.7635C34.5351 34.7635 32.5569 34.982 32.5569 35.2516C32.5569 35.5212 34.5351 35.7398 36.9753 35.7398Z" fill="#FFCB64"/>
<path d="M36.9752 35.5796C38.9619 35.5796 40.5725 35.4328 40.5725 35.2516C40.5725 35.0705 38.9619 34.9237 36.9752 34.9237C34.9885 34.9237 33.3779 35.0705 33.3779 35.2516C33.3779 35.4328 34.9885 35.5796 36.9752 35.5796Z" fill="#F49B51"/>
<path d="M27.1097 44.2411H5.74881C5.22562 44.2411 4.80005 43.8181 4.80005 43.2924V28.7505C4.80005 28.2273 5.22311 27.8018 5.74881 27.8018H27.1097C27.6329 27.8018 28.0585 28.2248 28.0585 28.7505V43.2924C28.056 43.8181 27.6329 44.2411 27.1097 44.2411Z" fill="#D84E55"/>
<path d="M27.3525 29.5115V42.5363C27.3525 43.087 26.9044 43.5351 26.3537 43.5351H24.8467V29.3563H6.0842C5.85139 29.3563 5.66113 29.1685 5.66113 28.9357C5.66113 28.7029 5.84888 28.5126 6.0842 28.5126H26.3537C26.9044 28.5126 27.3525 28.9607 27.3525 29.5115Z" fill="#992E40"/>
<path d="M20.7414 24.7175C18.3757 24.0967 15.955 25.5136 15.3342 27.8818C14.7134 30.2474 16.1302 32.6706 18.4984 33.289C20.864 33.9098 23.2873 32.4929 23.9056 30.1247C24.5264 27.7591 23.1095 25.3384 20.7414 24.7175ZM23.0695 29.907C22.8292 30.8282 22.2434 31.6017 21.4198 32.0824C20.5987 32.563 19.6374 32.6957 18.7162 32.4553C16.8137 31.9572 15.6721 30.0046 16.1703 28.1021C16.4106 27.1808 16.9964 26.4073 17.82 25.9267C18.6136 25.4635 19.5348 25.3234 20.426 25.5311C20.4585 25.5386 20.4911 25.5462 20.5211 25.5562C22.3936 26.0443 23.5276 27.9418 23.092 29.8143C23.0845 29.8444 23.077 29.8744 23.0695 29.907Z" fill="#FFCB64"/>
<path d="M23.092 29.8117C23.0845 29.8443 23.077 29.8743 23.0694 29.9069C22.8291 30.8281 22.2433 31.6016 21.4198 32.0823C20.5987 32.5629 19.6374 32.6956 18.7162 32.4553C16.8136 31.9571 15.6721 30.0045 16.1703 28.102C16.4106 27.1807 16.9964 26.4072 17.82 25.9266C18.6135 25.4635 19.5347 25.3233 20.4259 25.531C20.4585 25.5386 20.491 25.5461 20.5211 25.5561C22.3935 26.0442 23.5276 27.9393 23.092 29.8117Z" fill="#F49B51"/>
<path d="M18.581 27.0131H21.4974V27.0181C21.3247 27.2834 21.2296 27.4236 21.207 27.4436H20.426C20.5336 27.5688 20.6062 27.7215 20.6438 27.9017H21.4749C21.4849 27.9042 21.4899 27.9068 21.4899 27.9143C21.3047 28.1921 21.2095 28.3323 21.2045 28.3323H20.6638C20.6513 28.475 20.5837 28.6477 20.4585 28.8505C20.2933 29.0558 20.1331 29.186 19.9829 29.2485C19.7 29.3837 19.4297 29.4513 19.1718 29.4513V29.4563C19.1718 29.4763 19.7576 30.1698 20.9267 31.5391H20.1531C19.0141 30.2123 18.4434 29.5439 18.4434 29.5389V29.1359L18.4484 29.1209C18.5485 29.1359 18.6687 29.1409 18.8038 29.1409C19.4422 29.1409 19.8402 28.9331 19.9954 28.5201C20.0205 28.46 20.033 28.3974 20.033 28.3323H18.2982C18.2907 28.3323 18.2856 28.3273 18.2856 28.3198C18.4784 28.0419 18.576 27.9017 18.5785 27.9017H19.9554V27.8967C19.8778 27.7365 19.7251 27.6139 19.4973 27.5237C19.3345 27.4712 19.1893 27.4461 19.0617 27.4461H18.2907V27.4311C18.4784 27.1507 18.5735 27.0131 18.581 27.0131Z" fill="#FFCB64"/>
<path d="M12.4001 20.9551C9.95437 20.8875 7.91917 22.8176 7.85158 25.2633C7.78399 27.7091 9.71405 29.7468 12.1598 29.8119C14.6056 29.8795 16.6433 27.9494 16.7084 25.5036C16.776 23.0579 14.8459 21.0227 12.4001 20.9551ZM15.8447 25.4811C15.8197 26.4324 15.4242 27.3186 14.7307 27.9719C14.0398 28.6278 13.1361 28.9733 12.1823 28.9482C10.2172 28.8957 8.66265 27.2535 8.71522 25.2859C8.74026 24.3346 9.13578 23.4484 9.8267 22.795C10.4926 22.1642 11.3612 21.8187 12.275 21.8187C12.3075 21.8187 12.34 21.8187 12.3751 21.8212C14.3077 21.8738 15.8447 23.4634 15.8447 25.386C15.8447 25.416 15.8447 25.4486 15.8447 25.4811Z" fill="#FFCB64"/>
<path d="M15.8448 25.3835C15.8448 25.4161 15.8448 25.4486 15.8448 25.4812C15.8197 26.4324 15.4242 27.3186 14.7308 27.972C14.0399 28.6278 13.1362 28.9733 12.1824 28.9483C10.2173 28.8957 8.66021 27.2535 8.71528 25.2859C8.74032 24.3346 9.13584 23.4485 9.82676 22.7951C10.4927 22.1642 11.3613 21.8188 12.275 21.8188C12.3076 21.8188 12.3401 21.8188 12.3752 21.8213C14.3102 21.8714 15.8448 23.461 15.8448 25.3835Z" fill="#F49B51"/>
<path d="M11.2411 23.3934H14.1575V23.3984C13.9848 23.6638 13.8897 23.804 13.8671 23.824H13.0886C13.1962 23.9492 13.2688 24.1019 13.3064 24.2821H14.1375C14.1475 24.2846 14.1525 24.2871 14.1525 24.2946C13.9673 24.5725 13.8721 24.7127 13.8671 24.7127H13.3264C13.3139 24.8554 13.2463 25.0281 13.1211 25.2309C12.9559 25.4362 12.7957 25.5663 12.6455 25.6289C12.3626 25.7641 12.0923 25.8317 11.8344 25.8317V25.8367C11.8344 25.8567 12.4202 26.5501 13.5893 27.9195H12.8157C11.6767 26.5927 11.106 25.9243 11.106 25.9193V25.5163L11.111 25.5012C11.2111 25.5163 11.3313 25.5213 11.4664 25.5213C12.1048 25.5213 12.5028 25.3135 12.658 24.9004C12.6831 24.8404 12.6956 24.7778 12.6956 24.7127H10.9608C10.9532 24.7127 10.9482 24.7077 10.9482 24.7002C11.141 24.4223 11.2386 24.2821 11.2411 24.2821H12.6155V24.2771C12.5379 24.1169 12.3852 23.9942 12.1574 23.9041C11.9946 23.8515 11.8494 23.8265 11.7218 23.8265H10.9507V23.8115C11.1385 23.5311 11.2336 23.3934 11.2411 23.3934Z" fill="#FFCB64"/>
<path d="M25.6227 45.6029H5.72121C5.21304 45.6029 4.80249 45.1923 4.80249 44.6842V30.2925C4.80249 29.7843 5.21304 29.3738 5.72121 29.3738H25.6252C26.1334 29.3738 26.5439 29.7843 26.5439 30.2925V44.6842C26.5414 45.1898 26.1309 45.6029 25.6227 45.6029Z" fill="#D84E55"/>
<path d="M28.031 34.1552V38.7413C28.031 39.317 27.5654 39.7826 26.9897 39.7826H23.0219C21.7527 39.7826 20.7263 38.7538 20.7263 37.4871C20.7263 36.8537 20.9842 36.278 21.3997 35.8624C21.8153 35.4469 22.3885 35.189 23.0244 35.189H26.9922C27.0222 35.189 27.0497 35.189 27.0798 35.194C27.6105 35.149 28.031 34.7009 28.031 34.1552Z" fill="#992E40"/>
<path d="M22.8117 38.5585C23.4034 38.5585 23.8831 38.0788 23.8831 37.4871C23.8831 36.8953 23.4034 36.4156 22.8117 36.4156C22.2199 36.4156 21.7402 36.8953 21.7402 37.4871C21.7402 38.0788 22.2199 38.5585 22.8117 38.5585Z" fill="white"/>
<path d="M28.4238 10.4886L28.2536 11.3373C26.7791 11.0494 25.2321 11.0919 23.7876 11.5075C23.0617 11.7128 22.3607 11.9956 21.7074 12.3661C21.0515 12.7366 20.4332 13.1722 19.8824 13.6854C19.3292 14.1961 18.831 14.7668 18.413 15.3902C17.9949 16.016 17.6495 16.6894 17.3866 17.3928C17.319 17.5681 17.2639 17.7483 17.2039 17.9285C17.1538 18.1088 17.0987 18.289 17.0562 18.4718C17.0462 18.5218 17.0311 18.5694 17.0211 18.6195L16.1475 18.5569C16.17 18.4592 16.1925 18.3641 16.2151 18.269C16.2601 18.0687 16.3227 17.8735 16.3753 17.6757C16.4403 17.4804 16.5029 17.2877 16.573 17.0949C16.8609 16.3264 17.2364 15.5929 17.6945 14.9095C18.1526 14.2286 18.6933 13.6053 19.2941 13.0495C19.8949 12.4913 20.5683 12.0132 21.2843 11.6126C21.9977 11.2096 22.7638 10.8992 23.5523 10.6739C25.1294 10.2208 26.8167 10.1732 28.4238 10.4886Z" fill="#D84E55"/>
<path d="M17.7922 18.722C17.2966 19.2527 16.851 19.8786 16.478 20.5845C16.0524 19.9111 15.6969 19.1501 15.4341 18.3215L16.1876 18.4492C16.1926 18.4041 16.2026 18.359 16.2101 18.314L16.2176 18.2814L16.2226 18.2539L17.0938 18.314C17.0863 18.339 17.0838 18.3666 17.0763 18.3941L17.0688 18.4442L17.0637 18.4717C17.0562 18.5143 17.0462 18.5543 17.0412 18.5944L17.7922 18.722Z" fill="#D84E55"/>
<path d="M22.5035 18.8223C22.5711 21.3256 24.6539 23.2982 27.1572 23.2306C29.6605 23.163 31.6332 21.0803 31.5656 18.5769C31.498 16.0736 29.4152 14.101 26.9119 14.1686C24.4061 14.2361 22.4334 16.3189 22.5035 18.8223ZM23.3847 18.6971C23.3847 16.732 24.9543 15.1048 26.9319 15.0522C26.967 15.0522 26.9995 15.0497 27.0346 15.0497C27.9708 15.0497 28.857 15.4027 29.5404 16.0486C30.2488 16.7195 30.6519 17.6232 30.6794 18.597C30.7345 20.6071 29.1424 22.2869 27.1322 22.3419C26.1584 22.3695 25.2322 22.014 24.5262 21.3431C23.8178 20.6722 23.4147 19.7685 23.3872 18.7947C23.3847 18.7647 23.3847 18.7321 23.3847 18.6971Z" fill="#FFCB64"/>
<path d="M23.3848 18.697C23.3848 18.7296 23.3848 18.7646 23.3848 18.7972C23.4123 19.771 23.8153 20.6772 24.5238 21.3456C25.2297 22.0165 26.156 22.3694 27.1298 22.3444C29.1399 22.2893 30.732 20.6096 30.677 18.5994C30.6494 17.6256 30.2464 16.7194 29.538 16.051C28.8545 15.4052 27.9684 15.0522 27.0321 15.0522C26.9971 15.0522 26.9645 15.0522 26.9295 15.0547C24.9544 15.1048 23.3848 16.7319 23.3848 18.697Z" fill="#F49B51"/>
<path d="M25.9681 16.6619H28.9496V16.6669C28.7744 16.9372 28.6742 17.0824 28.6517 17.0999H27.8556C27.9658 17.2276 28.0384 17.3853 28.0784 17.5681H28.9271C28.9371 17.5706 28.9421 17.5731 28.9421 17.5806C28.7518 17.866 28.6542 18.0087 28.6517 18.0087H28.101C28.0884 18.1564 28.0184 18.3316 27.8907 18.5394C27.7205 18.7471 27.5577 18.8823 27.405 18.9449C27.1147 19.0826 26.8393 19.1527 26.5739 19.1527V19.1577C26.5739 19.1777 27.1722 19.8887 28.3688 21.288H27.5778C26.4112 19.9312 25.8279 19.2478 25.8279 19.2428V18.8298L25.8329 18.8147C25.9356 18.8298 26.0582 18.8373 26.1959 18.8373C26.8493 18.8373 27.2548 18.6245 27.4151 18.2014C27.4401 18.1388 27.4526 18.0762 27.4526 18.0087H25.6802C25.6727 18.0087 25.6677 18.0037 25.6677 17.9961C25.863 17.7108 25.9631 17.5681 25.9681 17.5681H27.375V17.5631C27.2949 17.4003 27.1372 17.2727 26.9069 17.1826C26.7417 17.13 26.5915 17.1025 26.4613 17.1025H25.6727V17.0874C25.8655 16.8046 25.9631 16.6619 25.9681 16.6619Z" fill="#FFCB64"/>
<path d="M25.2922 19.3404C24.9217 19.5282 24.6689 19.8161 24.4936 20.1766C24.3209 19.8161 24.0656 19.5257 23.6951 19.3379C24.0656 19.1502 24.3209 18.8623 24.4936 18.5018C24.6689 18.8623 24.9217 19.1527 25.2922 19.3404Z" fill="#FFE6A6"/>
<path d="M25.978 21.1202C25.7627 21.2304 25.615 21.3956 25.5149 21.6059C25.4147 21.3956 25.2645 21.2279 25.0518 21.1177C25.267 21.0076 25.4147 20.8424 25.5149 20.6321C25.615 20.8424 25.7627 21.0126 25.978 21.1202Z" fill="#FFE6A6"/>
<path d="M32.4095 19.0325C32.8476 19.0325 33.2857 19.035 33.7238 19.0325C33.889 19.0325 34.0267 18.9049 34.0467 18.7471C34.0667 18.5719 33.9716 18.4217 33.8114 18.3792C33.7738 18.3691 33.7313 18.3666 33.6912 18.3666C32.8401 18.3666 31.9865 18.3666 31.1353 18.3666C30.92 18.3666 30.7773 18.4993 30.7773 18.6971C30.7773 18.8998 30.92 19.0325 31.1403 19.0325C31.5609 19.0325 31.984 19.0325 32.4095 19.0325Z" fill="#FFCB64"/>
<path d="M31.6835 17.7283C31.9989 17.7283 32.3143 17.7283 32.6297 17.7283C32.845 17.7283 32.9877 17.5956 32.9902 17.3979C32.9927 17.1926 32.85 17.0624 32.6272 17.0624C31.9914 17.0624 31.358 17.0624 30.7222 17.0624C30.5094 17.0624 30.3667 17.1976 30.3667 17.3954C30.3667 17.5931 30.5094 17.7258 30.7247 17.7283C31.0451 17.7283 31.363 17.7283 31.6835 17.7283Z" fill="#FFCB64"/>
<path d="M33.3857 20.3568C33.601 20.3568 33.7437 20.2241 33.7462 20.0264C33.7487 19.8211 33.606 19.6909 33.3832 19.6909C32.7473 19.6909 32.85 19.6909 32.2141 19.6909C32.0013 19.6909 31.8586 19.8261 31.8586 20.0239C31.8586 20.2216 32.0013 20.3543 32.2166 20.3568C32.537 20.3568 33.0703 20.3568 33.3857 20.3568Z" fill="#FFCB64"/>
</svg>
