<svg width="48" height="49" viewBox="0 0 48 49" fill="none" xmlns="http://www.w3.org/2000/svg">
<path d="M33.4692 11.0922C35.5398 10.9356 37.149 12.386 39.9813 15.0166C41.2365 16.1817 42.1441 16.6945 42.702 17.6043C43.2277 18.4604 44.2619 20.6662 43.7727 23.0457C43.2577 25.5476 41.0112 27.8284 38.5544 28.0409C34.336 28.4035 31.1755 22.4836 30.6154 21.1726C29.5447 18.6729 29.0984 14.8385 31.2849 11.8947C31.935 11.0192 33.1259 11.1179 33.4692 11.0922Z" fill="#1F2F59"/>
<path d="M24.5518 38.2971H18.4495C18.4495 38.295 18.4495 38.2928 18.4495 38.2907C18.6662 37.1856 19.1768 36.7715 19.415 36.602C20.4085 35.8982 21.7602 36.3402 22.1164 36.4583C23.2965 36.8445 24.0947 37.6856 24.5518 38.2971Z" fill="#38A3C6"/>
<path d="M29.4634 22.1402C28.6888 21.9835 26.8263 24.5047 26.6525 25.3951C26.2728 27.3563 26.4487 27.7511 26.2062 29.1866C26.0217 30.2808 25.6441 30.7271 24.9339 33.7375C24.6764 34.8297 24.5991 36.7501 25.0562 37.132C25.2772 37.3165 26.1483 37.3895 26.7512 37.2221C28.0172 36.8702 30.4547 31.1198 29.8625 25.6183C29.7659 24.7042 30.5577 22.3612 29.4634 22.1402Z" fill="#FFD38D"/>
<path d="M42.3094 35.967C41.5906 35.5121 41.0842 33.5424 40.3911 29.0086C40.168 27.5474 40.0822 26.8972 40.213 25.9746C40.2753 25.5455 40.5049 23.8053 41.5069 23.477C42.1635 23.2625 42.8501 23.6165 42.9788 23.7002C44.4443 24.6486 44.5559 26.7234 44.5409 30.7916C44.528 33.9973 44.4508 35.9842 43.9165 36.2331C43.2449 36.5463 42.4102 36.0314 42.3094 35.967Z" fill="#FFD38D"/>
<path d="M30.0255 38.1298C30.0084 38.1641 30.062 38.2649 30.0491 38.2971H42.8824C42.7 37.8015 42.1915 37.0698 41.7452 36.0785C41.0843 34.6087 40.2797 33.2934 40.5114 31.2357C40.5522 30.9847 40.593 30.7401 40.6337 30.504C40.7024 30.9203 40.771 31.3087 40.8376 31.6734C42.0949 32.2528 43.4488 32.3665 44.4273 31.8494C44.4616 31.8301 44.4981 31.8108 44.5324 31.7893C44.5367 31.461 44.5389 31.1156 44.5389 30.7551C44.5474 28.4914 44.5174 26.8457 44.2363 25.6655C44.2814 25.0068 43.7321 24.2451 43.2579 23.7516C42.8159 23.2881 42.0992 23.2066 41.0285 22.932C39.1983 22.4621 37.4903 21.3978 36.4947 21.1875C33.9521 20.6532 32.5939 21.7282 30.6242 21.7883C28.5021 21.8527 26.9894 23.2817 26.5645 25.4016C26.1719 27.3606 26.3607 27.7576 26.1182 29.193C26.011 29.8303 25.9208 30.0813 25.7256 30.7722C26.5495 31.2958 27.4636 31.6133 28.3176 31.6756C29.3561 33.4694 31.403 35.2052 30.0255 38.1298Z" fill="#D84E55"/>
<path d="M32.375 16.7653C32.375 17.4068 32.094 18.6792 31.8558 18.8638C31.5661 19.0869 31.1348 18.9904 31.064 18.9646C30.6435 18.8015 30.3259 17.9797 30.3259 16.7653C30.3259 15.5508 30.622 14.6561 31.064 14.566C31.107 14.5574 31.6884 14.4093 31.9202 14.7205C32.3021 15.229 32.375 16.0508 32.375 16.7653Z" fill="white"/>
<path d="M31.6519 18.9646C32.0596 18.9646 32.39 17.9799 32.39 16.7653C32.39 15.5506 32.0596 14.566 31.6519 14.566C31.2443 14.566 30.9138 15.5506 30.9138 16.7653C30.9138 17.9799 31.2443 18.9646 31.6519 18.9646Z" fill="#F3D4AA"/>
<path d="M28.6823 32.3106C28.5922 31.9759 28.4849 31.6498 28.4012 31.3215C28.3175 30.9953 28.2553 30.6714 28.2424 30.3474C28.2274 30.0234 28.251 29.7037 28.3304 29.3947C28.4033 29.0836 28.5321 28.7832 28.6587 28.4592C28.7853 28.1373 28.899 27.7811 28.9247 27.4142C28.9355 27.2297 28.9333 27.0495 28.9162 26.8692C28.8969 26.6911 28.8668 26.513 28.8218 26.3414C28.7359 25.9959 28.6029 25.6676 28.4398 25.3608C28.3583 25.2063 28.266 25.0583 28.1695 24.9145C28.0729 24.7708 27.9656 24.6356 27.8498 24.5068C27.9356 24.657 28.0128 24.8094 28.0858 24.9639C28.1223 25.0411 28.1566 25.1184 28.1888 25.1977C28.221 25.275 28.2531 25.3544 28.281 25.4338C28.3969 25.7513 28.4849 26.0753 28.5342 26.4015C28.5578 26.5645 28.575 26.7276 28.5771 26.8907C28.5793 26.9722 28.5771 27.0538 28.5729 27.1331C28.5686 27.2147 28.56 27.2919 28.5471 27.3713C28.5235 27.5279 28.4827 27.6824 28.4312 27.8348C28.3797 27.9871 28.3175 28.1395 28.2531 28.2961C28.1866 28.4506 28.1201 28.6115 28.0557 28.7767C27.9935 28.9441 27.9399 29.1157 27.8991 29.296C27.8197 29.6543 27.8047 30.0255 27.8562 30.3838C27.9055 30.7443 28.0171 31.0876 28.163 31.4052C28.3111 31.7249 28.487 32.0231 28.6823 32.3106Z" fill="#992E40"/>
<path d="M42.1721 25.7256C41.9404 25.8608 41.7387 26.0561 41.5777 26.2792C41.4147 26.5024 41.2924 26.7491 41.1894 27.0023C40.9877 27.5108 40.8697 28.0408 40.7817 28.5687C40.6959 29.0986 40.6401 29.6286 40.5972 30.1586C40.5564 30.6886 40.5285 31.2207 40.5264 31.7571C40.6766 31.2422 40.7817 30.7186 40.8761 30.1951C40.9705 29.6715 41.0499 29.148 41.1336 28.6287C41.2194 28.1095 41.3095 27.5924 41.4533 27.0946C41.5263 26.8457 41.6099 26.6011 41.7258 26.3715C41.7816 26.2535 41.8502 26.1441 41.9211 26.0346C41.9597 25.981 41.9962 25.9273 42.0391 25.878C42.0798 25.8243 42.1292 25.7771 42.1721 25.7256Z" fill="#992E40"/>
<path d="M33.4286 19.3144C33.3041 19.7285 33.7611 22.3183 33.8491 22.5329C34.1388 23.2324 35.0249 23.8031 35.8939 23.7774C37.1019 23.7409 37.5804 22.8461 37.5482 21.9707C37.5053 20.7906 37.4603 19.7199 37.6534 17.379C37.7049 16.7524 33.6667 18.5162 33.4286 19.3144Z" fill="#FFD38D"/>
<path d="M35.0335 17.9969C35.482 17.8338 35.4927 17.6064 36.0849 17.8274C36.5033 17.9819 36.823 18.3874 37.0547 18.9088C36.9045 19.5976 36.5012 20.37 36.0527 20.9C35.7545 21.2519 35.2931 21.7969 34.5078 21.8892C34.2697 21.917 34.0036 21.9042 33.7461 21.8441C33.5616 21.0459 33.2826 19.6233 33.3749 19.3165C33.6152 18.5162 34.6065 18.1535 35.0335 17.9969Z" fill="#F49B51"/>
<path d="M38.6812 14.2355C38.7026 13.1541 38.1727 12.3388 37.9817 12.0513C37.0633 10.6802 36.0763 10.324 35.7094 10.2382C34.4349 9.94206 33.3449 9.96566 32.3321 10.7317C30.4826 12.1328 30.7765 15.2161 30.9117 16.1688C31.0426 17.0871 31.6219 19.8529 33.1561 21.0309C33.42 21.2347 33.7526 21.46 34.3019 21.4429C35.0743 21.4171 35.7888 20.8549 36.0463 20.5782C36.9389 19.6212 37.1513 18.9174 37.4818 17.158C37.8165 15.3663 38.6597 15.3191 38.6812 14.2355Z" fill="#FFD38D"/>
<path d="M42.2643 28.5644C42.0304 30.0985 41.863 30.12 41.6399 31.8644C41.4876 33.0617 41.597 33.832 41.863 34.6302C42.039 35.158 42.0926 35.7352 42.7556 36.1021C42.8608 36.16 43.38 36.5312 44.1375 36.2351C44.2383 36.1965 45.2082 35.4777 45.5193 33.4243C45.6888 32.3064 45.6201 29.4055 45.0279 26.9572C44.2898 23.8997 44.41 24.391 44.1353 23.4791C43.8671 22.5865 43.7791 21.0266 42.7964 20.8035C42.4681 20.7284 42.1227 20.9923 41.9489 21.2498C41.7193 21.5888 41.9789 21.9771 42.0819 22.5887C42.5089 25.0626 42.5067 26.9766 42.2643 28.5644Z" fill="#FFD38D"/>
<path d="M35.0977 19.4581C35.1234 19.4151 35.0934 19.3615 35.044 19.3594C34.8316 19.3465 34.3167 19.325 33.7309 19.3851C33.3297 19.4259 32.9542 19.5289 32.7975 19.5761C32.7568 19.5889 32.7396 19.6361 32.7589 19.6726C32.8683 19.8657 33.2288 20.3657 33.9433 20.2863C34.587 20.2133 34.9668 19.6769 35.0977 19.4581Z" fill="#D65B5B"/>
<path d="M41.73 18.6556C41.6077 18.1943 41.3438 17.8531 41.2322 17.3897C41.2258 17.3596 41.2065 17.2459 41.1121 17.1751C40.8825 17.0013 40.4019 16.9498 39.874 16.6773C39.8161 16.6473 39.4771 16.4241 39.387 16.4778C39.3076 16.525 39.2325 16.6387 39.2518 16.7417C39.2625 16.8018 39.2539 17.0249 39.5286 17.1966C39.9834 17.4819 40.5156 17.6128 40.5821 17.6751C40.6872 17.7738 40.6078 18.1235 40.6078 18.263C40.6207 19.368 41.2194 19.5611 41.1657 20.0417C41.155 20.1383 41.1099 20.2928 40.9962 20.3443C40.8417 20.4129 40.7087 20.3657 40.2152 20.1576C40.1315 20.1211 39.0887 19.692 38.8827 19.9967C38.8098 20.104 38.8956 20.2906 39.0093 20.3593C39.1037 20.4172 39.4363 20.5932 39.7624 20.7305C40.2302 20.9279 40.3289 20.9622 40.5156 21.1017C40.7044 21.2433 40.6615 21.1811 40.861 21.4171C41.1614 21.7733 41.5326 21.9235 41.7343 22.0029C42.0733 22.1402 42.569 22.1209 42.7986 21.9192C43.0196 21.7239 42.8908 21.4686 42.7149 20.8914C42.3373 19.6512 41.9939 19.6512 41.73 18.6556Z" fill="#F49B51"/>
<path d="M41.0069 17.2159C39.9813 16.7117 38.9278 16.2933 38.0201 16.0444C34.2051 14.9951 32.8169 12.4203 32.8169 12.4203C32.8169 12.4203 29.21 16.4649 30.2507 19.6341C30.624 20.7734 31.0918 21.2691 31.1111 21.5416C30.9931 21.5416 30.8729 21.5866 30.7484 21.5716C30.727 21.5695 30.8107 21.5673 30.7892 21.5652C30.4202 21.0073 29.77 19.6341 29.77 19.6341C29.3151 18.3231 29.4954 17.1901 29.8558 14.9243C30.0018 14.0103 30.1906 12.5855 31.1711 11.1351C31.9736 9.95064 33.0443 9.86481 33.4584 9.90558C33.6258 9.95493 33.6086 9.98068 33.6387 9.96781C35.8745 9.07091 38.0244 9.73607 39.447 12.9868C40.3418 15.0294 42.2407 16.2224 42.9616 17.6171C43.8392 19.3187 43.8177 20.4559 43.7727 20.6339C43.7491 20.7305 43.1998 18.293 41.0069 17.2159Z" fill="#19335D"/>
<path d="M33.9756 9.94202C34.6622 9.78968 35.3703 9.76823 36.0397 9.90984C36.2071 9.94632 36.3723 9.98923 36.5332 10.045C36.6942 10.1008 36.8508 10.1652 37.0031 10.2381C37.3078 10.3819 37.5932 10.5686 37.8507 10.7831C38.3699 11.2101 38.7797 11.7616 39.0887 12.3623C39.1273 12.4374 39.1617 12.5147 39.2003 12.5919C39.2389 12.6713 39.2775 12.7571 39.3205 12.8365C39.402 12.9996 39.4943 13.1562 39.5887 13.3107C39.7796 13.6176 39.9942 13.9094 40.2216 14.1883C40.6787 14.7419 41.1893 15.2397 41.6828 15.7311C41.9296 15.9778 42.1742 16.2246 42.3952 16.4842C42.6162 16.7438 42.8072 17.0292 42.9767 17.3274C43.144 17.6278 43.2857 17.9411 43.3929 18.2694C43.5024 18.5955 43.5818 18.9324 43.629 19.2757C43.7234 19.9623 43.6933 20.6682 43.5796 21.3634C43.7577 20.6833 43.8414 19.9709 43.7877 19.2585C43.7599 18.9024 43.6998 18.5483 43.6054 18.2029C43.5088 17.8574 43.3779 17.5205 43.217 17.1987C43.1376 17.0378 43.0496 16.8811 42.9552 16.7266C42.908 16.6515 42.8608 16.5743 42.8093 16.4992C42.7578 16.4241 42.7063 16.3512 42.6505 16.2782C42.4338 15.9907 42.1978 15.7225 41.9596 15.4607C41.4811 14.9414 40.9919 14.4436 40.5649 13.9051C40.4577 13.7699 40.3525 13.6347 40.2538 13.4953C40.1551 13.3558 40.0607 13.2142 39.9684 13.0704C39.8805 12.9245 39.7925 12.7786 39.7153 12.6284C39.6745 12.5533 39.6402 12.4782 39.6015 12.401C39.5608 12.3194 39.52 12.2379 39.4771 12.1585C39.3054 11.8367 39.1037 11.5298 38.872 11.2487C38.6403 10.9655 38.3764 10.708 38.0824 10.487C37.7884 10.2682 37.4687 10.0836 37.1297 9.94632C36.7929 9.8047 36.4345 9.72102 36.0783 9.67167C35.8981 9.65021 35.7179 9.63734 35.5398 9.64163C35.3595 9.64378 35.1815 9.65236 35.0034 9.67596C34.8253 9.69742 34.6515 9.73389 34.4798 9.77681L34.3511 9.81114C34.3082 9.82401 34.2674 9.83689 34.2245 9.85191C34.1408 9.87765 34.0593 9.91199 33.9756 9.94202Z" fill="#1F2F59"/>
<path d="M37.1039 38.3336H21.2002V37.5848H36.7456C36.855 37.5848 37.2327 38.0869 37.2327 38.0869C37.3163 38.1834 37.2455 38.3315 37.1039 38.3336C37.1039 38.3336 37.1061 38.3336 37.1039 38.3336Z" fill="#0B2139"/>
<path d="M26.6031 38.2971H13.5639C13.0125 38.2971 12.5297 37.9302 12.3816 37.4002L9.30258 26.4552C9.19959 26.0904 9.47424 25.7299 9.85188 25.7299H23.0392C23.5949 25.7299 24.082 26.099 24.2322 26.6332L27.2662 37.4217C27.3906 37.8616 27.0602 38.2971 26.6031 38.2971Z" fill="#0B2139"/>
<path d="M26.6009 38.3701H13.5166C12.9716 38.3701 12.4953 38.0075 12.3472 37.4839L9.28751 26.6053C9.21455 26.3479 9.40767 26.0925 9.67587 26.0925H22.7602C23.3052 26.0925 23.7815 26.4551 23.9296 26.9787L26.9893 37.8573C27.0601 38.1147 26.867 38.3701 26.6009 38.3701Z" fill="#19335D"/>
<path d="M37.4603 16.864C37.4603 18.8509 36.278 20.6361 34.8469 20.6361C34.7525 20.6361 34.6581 20.6275 34.5658 20.6147C34.5658 20.6104 34.5658 20.6082 34.5658 20.6039C34.5658 20.4065 34.3062 20.2456 33.9843 20.2456C33.6625 20.2456 33.4028 20.4065 33.4028 20.6039C33.4028 20.8013 33.6625 20.9622 33.9843 20.9622C34.1924 20.9622 34.3748 20.8957 34.4778 20.7927C34.628 20.8314 34.7954 20.8464 34.9906 20.8464C36.6192 20.8464 37.9967 19.1663 37.9967 16.9477L37.4603 16.864Z" fill="white"/>
<path d="M32.0273 10.2639L32.0467 10.2468C32.1303 10.1717 32.5981 9.77473 33.6752 9.76614C36.3616 9.7404 38.3528 12.0448 38.3528 15.0574L37.7799 15.1711C37.7799 12.4761 35.7415 9.99788 33.4456 9.96784C32.6045 9.95925 32.1969 10.1481 32.0273 10.2639Z" fill="white"/>
<path d="M39.1446 16.7653C39.1446 17.4068 38.8635 18.6792 38.6253 18.8638C38.3357 19.0869 37.9044 18.9904 37.8336 18.9646C37.413 18.8015 37.0955 17.9797 37.0955 16.7653C37.0955 15.5508 37.3916 14.6561 37.8336 14.566C37.8765 14.5574 38.458 14.4093 38.6897 14.7205C39.0716 15.229 39.1446 16.0508 39.1446 16.7653Z" fill="white"/>
<path d="M38.4215 18.9646C38.8291 18.9646 39.1596 17.9799 39.1596 16.7653C39.1596 15.5506 38.8291 14.566 38.4215 14.566C38.0138 14.566 37.6833 15.5506 37.6833 16.7653C37.6833 17.9799 38.0138 18.9646 38.4215 18.9646Z" fill="#992E40"/>
<path d="M38.4666 18.6815C38.8126 18.6815 39.0932 17.8236 39.0932 16.7654C39.0932 15.7072 38.8126 14.8493 38.4666 14.8493C38.1206 14.8493 37.8401 15.7072 37.8401 16.7654C37.8401 17.8236 38.1206 18.6815 38.4666 18.6815Z" fill="#D84E55"/>
<path d="M39.5865 19.147C39.5264 19.1384 39.4363 19.1256 39.3205 19.147C39.2024 19.1685 39.1338 19.2114 38.9771 19.2994C38.5974 19.5118 38.6295 19.4689 38.5587 19.529C38.3742 19.6791 38.415 19.7564 38.2154 19.9109C38.121 19.9838 37.8721 20.1126 37.6061 19.9495C37.5117 19.8894 37.561 19.7478 37.5674 19.7199C37.5867 19.6362 37.6297 19.6105 37.797 19.4152C37.9215 19.2693 37.9644 19.205 37.9494 19.1856C37.9386 19.1728 37.7198 19.2243 37.7198 19.0333C37.7198 18.9432 37.7799 18.8681 37.8721 18.7672C38.1918 18.4111 38.2197 18.3102 38.4429 18.1579C38.4751 18.1364 38.5695 18.0635 38.7862 18.0055C39.3569 17.8532 39.6702 17.6257 39.9298 17.7008C40.1959 17.7781 41.833 18.2845 41.9489 18.3488C42.142 18.4583 42.2214 18.6535 42.2536 18.7308C42.5669 19.4946 43.1934 20.6447 43.32 20.8636C43.3865 20.9773 43.5496 21.93 42.9381 22.1209C42.481 22.2647 42.0734 22.0029 42.024 21.9686C41.8352 21.8377 41.7451 21.6789 41.567 21.3592C41.2516 20.797 41.2494 20.4902 40.9962 20.3679C40.9769 20.3572 40.8117 20.2799 40.5778 20.2156C40.4963 20.192 40.4555 20.1812 40.4255 20.1769C40.1186 20.1383 39.6745 20.2735 39.6251 20.2907C39.5543 20.3143 39.3548 20.5331 38.7497 20.8614C38.6703 20.9043 38.3313 21.091 38.179 20.9387C38.1103 20.87 38.1403 20.7541 38.1403 20.7477C38.1747 20.6125 38.3184 20.5524 38.445 20.4816C38.8055 20.2778 38.7454 20.1212 39.1681 19.8336C39.3054 19.7414 39.4192 19.6727 39.5865 19.6041C40.1573 19.3745 40.5392 19.5654 40.5778 19.4131C40.6057 19.2972 40.1873 19.2264 39.5865 19.147Z" fill="#FFD07D"/>
<path d="M40.9576 18.6127C40.7001 18.5162 40.4383 18.4303 40.1744 18.351C40.0435 18.3102 39.9105 18.2759 39.7775 18.2394C39.7088 18.2222 39.6444 18.205 39.5715 18.1943C39.4985 18.1836 39.4213 18.1836 39.3441 18.1965C39.3076 18.2029 39.2625 18.2179 39.2325 18.2329C39.2003 18.248 39.1681 18.263 39.1359 18.2801C39.0737 18.3123 39.0136 18.3445 38.9535 18.3788C38.8334 18.4475 38.7154 18.5162 38.5974 18.587L38.4214 18.69C38.3549 18.7286 38.3034 18.7801 38.2562 18.8316C38.1639 18.9367 38.0845 19.0462 37.9858 19.1449C38.1039 19.0698 38.2004 18.9668 38.3013 18.8788C38.3527 18.8337 38.4042 18.793 38.46 18.7672C38.5244 18.7393 38.5845 18.7071 38.6467 18.6771C38.7712 18.617 38.8913 18.5505 39.0136 18.4883C39.0737 18.4561 39.1338 18.4239 39.1939 18.3939C39.2239 18.3788 39.2539 18.3638 39.284 18.351C39.3162 18.3381 39.3355 18.3295 39.3677 18.3252C39.4277 18.3123 39.49 18.3123 39.5522 18.3209C39.6144 18.3295 39.6809 18.3467 39.7474 18.3595L40.1487 18.4497C40.4169 18.5119 40.6851 18.5698 40.9576 18.6127Z" fill="#F49B51"/>
<path d="M21.5372 14.7527H3.73451C2.99855 14.7527 2.3999 15.3492 2.3999 16.0874V21.3979C2.3999 22.1339 2.9964 22.7325 3.73451 22.7325H18.4925L20.0137 24.1229V22.7325H21.5372C22.2731 22.7325 22.8718 22.136 22.8718 21.3979V16.0874C22.8718 15.3492 22.2731 14.7527 21.5372 14.7527Z" fill="#FFDCAE"/>
<path d="M18.3529 20.3851C18.3529 20.5224 18.2413 20.6361 18.1019 20.6361C17.9646 20.6361 17.8508 20.5245 17.8508 20.3851C17.8508 20.2478 17.9624 20.134 18.1019 20.134C18.2413 20.1362 18.3529 20.2478 18.3529 20.3851Z" fill="white"/>
<path d="M19.1402 20.6361C19.2789 20.6361 19.3912 20.5237 19.3912 20.3851C19.3912 20.2464 19.2789 20.134 19.1402 20.134C19.0016 20.134 18.8892 20.2464 18.8892 20.3851C18.8892 20.5237 19.0016 20.6361 19.1402 20.6361Z" fill="white"/>
<path d="M20.1788 20.6361C20.3174 20.6361 20.4298 20.5237 20.4298 20.3851C20.4298 20.2464 20.3174 20.134 20.1788 20.134C20.0401 20.134 19.9277 20.2464 19.9277 20.3851C19.9277 20.5237 20.0401 20.6361 20.1788 20.6361Z" fill="white"/>
<path d="M20.4171 17.0357H14.6495C14.51 17.0357 14.3984 16.9241 14.3984 16.7847C14.3984 16.6452 14.51 16.5336 14.6495 16.5336H20.4171C20.5565 16.5336 20.6681 16.6452 20.6681 16.7847C20.6681 16.922 20.5565 17.0357 20.4171 17.0357Z" fill="white"/>
<path d="M20.417 18.2373H12.0274C11.8879 18.2373 11.7764 18.1257 11.7764 17.9863C11.7764 17.8468 11.8879 17.7352 12.0274 17.7352H20.417C20.5565 17.7352 20.668 17.8468 20.668 17.9863C20.668 18.1236 20.5565 18.2373 20.417 18.2373Z" fill="white"/>
<path d="M20.417 19.4367H12.0274C11.8879 19.4367 11.7764 19.3251 11.7764 19.1857C11.7764 19.0462 11.8879 18.9346 12.0274 18.9346H20.417C20.5565 18.9346 20.668 19.0462 20.668 19.1857C20.668 19.3251 20.5565 19.4367 20.417 19.4367Z" fill="white"/>
<path d="M17.1127 20.6383H12.0274C11.8879 20.6383 11.7764 20.5267 11.7764 20.3873C11.7764 20.2478 11.8879 20.1362 12.0274 20.1362H17.1127C17.2521 20.1362 17.3637 20.2478 17.3637 20.3873C17.3637 20.5267 17.2521 20.6383 17.1127 20.6383Z" fill="white"/>
<path d="M27.3282 11.7145H13.8427C13.0895 11.7145 12.478 12.326 12.478 13.0791V14.2163C12.478 14.9695 13.0895 15.581 13.8427 15.581H24.217L25.7726 17.0014V15.581H27.3304C28.0835 15.581 28.695 14.9695 28.695 14.2163V13.0791C28.6907 12.326 28.0814 11.7145 27.3282 11.7145Z" fill="#FFCB64"/>
<path d="M25.82 12.4055L26.0989 13.2637H27.0022L26.2706 13.7937L26.5495 14.6541L25.82 14.122L25.0883 14.6541L25.3672 13.7937L24.6377 13.2637H25.541L25.82 12.4055Z" fill="#F49B51"/>
<path d="M23.2023 12.4055L23.4812 13.2637H24.3846L23.655 13.7937L23.934 14.6541L23.2023 14.122L22.4728 14.6541L22.7517 13.7937L22.02 13.2637H22.9234L23.2023 12.4055Z" fill="#F49B51"/>
<path d="M20.5846 12.4055L20.8635 13.2637H21.7669L21.0373 13.7937L21.3163 14.6541L20.5846 14.122L19.8551 14.6541L20.134 13.7937L19.4023 13.2637H20.3057L20.5846 12.4055Z" fill="#F49B51"/>
<path d="M17.9689 12.4055L18.2478 13.2637H19.149L18.4195 13.7937L18.6984 14.6541L17.9689 14.122L17.2372 14.6541L17.5162 13.7937L16.7866 13.2637H17.6878L17.9689 12.4055Z" fill="#F49B51"/>
<path d="M15.3512 12.4054L15.6301 13.2637H16.5335L15.8018 13.7936L16.0807 14.6541L15.3512 14.1219L14.6195 14.6541L14.8985 13.7936L14.1689 13.2637H15.0723L15.3512 12.4054Z" fill="white"/>
<path d="M7.1954 21.7369C8.83074 21.7369 10.1564 20.4112 10.1564 18.7758C10.1564 17.1405 8.83074 15.8148 7.1954 15.8148C5.56007 15.8148 4.23438 17.1405 4.23438 18.7758C4.23438 20.4112 5.56007 21.7369 7.1954 21.7369Z" fill="white"/>
<path d="M9.61579 21.2262C9.47203 20.9044 8.77254 20.6898 8.30907 20.4902C7.84346 20.2907 7.90783 20.1684 7.89067 20.0032C7.88852 19.9796 7.88638 19.956 7.88638 19.9324C8.04516 19.795 8.17604 19.6062 8.25972 19.3874C8.25972 19.3874 8.26402 19.3766 8.26616 19.3723C8.28333 19.3251 8.30049 19.2758 8.31337 19.2264C8.42065 19.205 8.48287 19.0913 8.50648 18.9883C8.53008 18.9454 8.57943 18.8424 8.5687 18.7222C8.55368 18.5699 8.49146 18.4991 8.42065 18.469C8.42065 18.4604 8.42065 18.4518 8.42065 18.4433C8.42065 18.2502 8.40134 17.9691 8.36486 17.7867C8.35628 17.7352 8.34555 17.6858 8.33053 17.6343C8.26187 17.409 8.11811 17.2074 7.92715 17.0657C7.72974 16.9198 7.44866 16.8426 7.19976 16.8426C6.95086 16.8426 6.67193 16.9198 6.47238 17.0657C6.28141 17.2074 6.13765 17.409 6.06899 17.6343C6.05397 17.6837 6.0411 17.7352 6.03466 17.7867C5.99819 17.9712 5.97887 18.2502 5.97887 18.4433C5.97887 18.4518 5.97887 18.4583 5.97887 18.4669C5.90592 18.4948 5.83941 18.5656 5.82439 18.7222C5.81366 18.8402 5.86301 18.9454 5.88661 18.9883C5.91021 19.0955 5.97458 19.2093 6.08401 19.2286C6.09689 19.2801 6.11405 19.3294 6.13122 19.3766C6.13336 19.3788 6.13336 19.3831 6.13551 19.3852L6.13765 19.3895C6.22348 19.6105 6.35651 19.8015 6.52173 19.9409C6.52173 19.9624 6.51958 19.9839 6.51744 20.0053C6.50027 20.1705 6.54962 20.2928 6.08401 20.4924C5.6184 20.6919 4.91891 20.9065 4.7773 21.2283C4.63354 21.5502 4.69147 21.7412 4.69147 21.7412H9.70162C9.70162 21.7369 9.75955 21.5481 9.61579 21.2262Z" fill="#FFDCAE"/>
</svg>
