<svg width="20" height="20" viewBox="0 0 20 20" fill="none" xmlns="http://www.w3.org/2000/svg">
<path d="M10 19C14.9706 19 19 14.9706 19 10C19 5.02944 14.9706 1 10 1C5.02944 1 1 5.02944 1 10C1 14.9706 5.02944 19 10 19ZM10 20C4.47715 20 0 15.5228 0 10C0 4.47715 4.47715 0 10 0C15.5228 0 20 4.47715 20 10C20 15.5228 15.5228 20 10 20ZM10 11.5C8.067 11.5 6.5 9.933 6.5 8C6.5 6.067 8.067 4.5 10 4.5C11.933 4.5 13.5 6.067 13.5 8C13.5 9.933 11.933 11.5 10 11.5ZM10 10.5C11.3807 10.5 12.5 9.38071 12.5 8C12.5 6.61929 11.3807 5.5 10 5.5C8.61929 5.5 7.5 6.61929 7.5 8C7.5 9.38071 8.61929 10.5 10 10.5ZM10 19.0216C12.5354 19.0216 14.895 17.9707 16.5811 16.1756C14.6994 14.7749 12.411 14 10 14C7.58903 14 5.30057 14.7749 3.41891 16.1756C5.10499 17.9707 7.46455 19.0216 10 19.0216ZM10 13C13.071 13 15.8734 14.15 18 16.043C16.1685 18.4602 13.2666 19.845 10 19.845C6.73342 19.845 3.85411 18.4336 2.02257 16.0164C4.14917 14.1235 6.929 13 10 13Z" fill="white"/>
</svg>
